<?xml version="1.0" standalone="no"?>
<!DOCTYPE svg PUBLIC "-//W3C//DTD SVG 20010904//EN"
 "http://www.w3.org/TR/2001/REC-SVG-20010904/DTD/svg10.dtd">
<svg version="1.0" xmlns="http://www.w3.org/2000/svg"
 width="1024.000000pt" height="1024.000000pt" viewBox="0 0 1024.000000 1024.000000"
 preserveAspectRatio="xMidYMid meet">

<g transform="translate(0.000000,1024.000000) scale(0.100000,-0.100000)"
fill="#000000" stroke="none">
<path d="M0 5120 l0 -5120 5120 0 5120 0 0 5120 0 5120 -1794 0 c-1404 0
-1796 -3 -1799 -13 -4 -9 -6 -9 -6 1 -1 16 -81 17 -81 0 0 -9 -3 -9 -12 0 -16
16 -135 16 -141 0 -4 -10 -6 -10 -6 0 -1 8 -17 12 -47 12 -30 0 -43 -4 -38
-11 4 -8 1 -8 -12 -1 -23 12 -173 10 -193 -2 -9 -6 -12 -5 -8 1 5 8 -30 11
-108 10 -63 0 -115 -4 -115 -8 0 -4 -3 -14 -6 -23 -3 -9 -1 -16 5 -16 6 0 11
7 11 16 0 14 1 14 16 0 8 -9 22 -16 30 -16 8 0 12 -5 9 -10 -4 -6 -14 -9 -23
-6 -51 14 -82 17 -82 7 0 -6 10 -12 23 -12 17 -1 18 -2 4 -6 -10 -3 -25 1 -33
8 -8 6 -18 9 -21 5 -4 -4 -1 -11 7 -16 8 -6 11 -10 5 -10 -5 0 -3 -4 5 -10 9
-5 19 -5 28 2 9 8 16 8 24 0 7 -7 19 -12 27 -12 11 0 10 4 -5 15 -16 12 -17
14 -3 15 22 0 33 -29 18 -46 -9 -11 -13 -11 -26 1 -21 21 -39 19 -22 -2 8 -10
20 -28 27 -41 12 -21 11 -22 -7 -10 -10 6 -17 18 -14 25 9 22 -13 14 -26 -9
-11 -21 -8 -6 5 26 3 7 -3 16 -12 20 -20 8 -33 -2 -17 -12 8 -5 9 -13 3 -22
-5 -8 -5 -21 1 -32 13 -24 -3 -23 -19 2 -13 22 -42 17 -42 -7 0 -13 2 -13 17
-2 14 12 16 12 11 -1 -5 -16 -58 -25 -58 -9 0 5 5 9 11 9 5 0 7 5 4 10 -7 12
-26 14 -24 3 3 -21 -3 -21 -23 -1 -20 20 -20 22 -4 34 10 7 13 15 7 18 -5 4
-14 -2 -20 -11 -6 -10 -11 -12 -11 -5 0 6 -7 12 -15 12 -8 0 -15 5 -15 11 0 5
8 9 18 7 9 -1 23 1 30 5 7 5 19 1 29 -9 16 -15 16 -17 -2 -30 -10 -8 -15 -17
-11 -21 4 -5 19 5 32 20 15 18 24 23 24 13 0 -8 -5 -16 -12 -18 -9 -3 -9 -6 0
-12 8 -5 15 1 21 16 5 14 5 25 -2 29 -5 4 -6 12 -3 18 4 6 2 11 -3 11 -6 0
-11 -7 -11 -15 0 -8 -4 -15 -9 -15 -5 0 -14 7 -21 15 -10 12 -10 15 4 15 9 0
16 5 16 11 0 6 9 8 20 4 11 -3 20 -2 20 4 0 5 -8 12 -17 15 -10 3 -6 4 10 2
15 -2 27 1 27 5 0 10 -5 11 -68 13 -24 1 -45 -1 -48 -6 -3 -5 -10 -5 -16 -2
-6 4 -5 9 3 15 19 12 5 21 -35 23 -39 1 -46 -7 -19 -23 12 -6 21 -5 31 7 12
15 12 15 7 -5 -4 -14 -2 -23 4 -23 6 0 11 -4 11 -10 0 -14 -16 -12 -32 3 -19
19 -90 59 -95 54 -2 -3 24 -23 59 -46 54 -35 65 -39 74 -26 6 8 14 12 17 8 4
-3 13 0 22 7 9 7 18 10 22 6 8 -8 -29 -36 -39 -30 -5 3 -8 0 -8 -7 0 -7 -10
-9 -25 -7 -14 3 -25 1 -25 -4 0 -6 -6 -8 -14 -5 -8 3 -16 1 -18 -5 -2 -6 -16
1 -32 15 -15 14 -34 23 -41 21 -7 -3 -16 0 -21 7 -4 8 -3 10 5 5 6 -4 18 0 27
9 18 18 18 18 -13 34 -26 13 -36 14 -28 2 7 -12 -31 -25 -46 -15 -8 5 -9 3 -4
-6 6 -10 4 -12 -9 -7 -10 4 -20 7 -23 7 -3 0 0 7 7 15 7 9 10 18 6 22 -3 3 -6
2 -6 -4 0 -6 -10 -9 -22 -6 -16 3 -19 2 -10 -4 19 -14 3 -43 -24 -43 -13 0
-24 -4 -24 -9 0 -5 -7 -8 -16 -7 -9 0 -19 -4 -21 -10 -5 -16 28 -12 46 4 10 9
17 10 24 3 6 -6 16 -11 22 -11 5 0 4 4 -4 9 -11 7 -9 11 9 21 23 12 43 4 22
-9 -10 -6 -10 -10 1 -20 18 -14 11 -51 -9 -51 -8 0 -14 4 -14 9 0 5 -9 13 -20
16 -12 4 -17 11 -13 18 7 12 -26 -11 -40 -28 -5 -6 -7 -3 -3 8 6 19 -2 21 -24
7 -13 -8 -12 -11 5 -25 19 -16 19 -16 -5 -9 -14 3 -29 10 -35 15 -5 5 -18 9
-30 8 -16 0 -15 -2 8 -11 15 -5 27 -14 27 -19 0 -5 8 -9 18 -9 10 0 32 -10 49
-23 25 -18 28 -24 17 -35 -19 -18 -26 -15 -19 8 5 14 2 20 -9 20 -9 0 -16 5
-16 10 0 6 -8 10 -17 10 -25 0 -85 38 -78 49 8 15 -14 24 -29 12 -9 -7 -19 -6
-34 5 -12 8 -27 12 -33 8 -15 -9 47 -35 66 -28 9 4 16 0 17 -7 0 -8 2 -18 2
-24 1 -5 5 -16 9 -22 11 -17 -2 -36 -19 -29 -8 3 -14 1 -14 -3 0 -8 23 -21 35
-21 3 0 9 9 15 21 9 15 8 24 -1 35 -6 8 -7 14 -1 14 5 0 15 -7 22 -15 7 -9 19
-14 26 -11 16 6 51 -20 41 -30 -4 -5 -12 -2 -17 6 -5 8 -12 11 -17 7 -4 -5 -1
-12 7 -17 8 -5 12 -12 8 -15 -3 -4 -16 3 -28 15 -12 12 -25 18 -28 14 -4 -3
-1 -9 6 -11 6 -3 12 -12 12 -20 0 -12 -3 -13 -13 -4 -10 8 -17 7 -25 -1 -8 -8
-17 -7 -35 4 -17 12 -28 13 -41 6 -14 -8 -17 -7 -12 1 4 6 1 17 -6 25 -11 12
-15 12 -30 -1 -16 -14 -18 -14 -24 1 -7 19 -30 21 -37 4 -2 -7 -4 2 -3 19 1
18 2 33 4 33 8 0 42 -42 42 -52 0 -8 7 -5 15 6 8 11 15 25 15 30 0 6 -4 5 -9
-3 -8 -12 -16 -9 -43 18 -24 23 -39 30 -55 26 -13 -3 -23 -1 -23 5 0 5 5 10
11 10 5 0 8 4 5 9 -3 5 1 11 9 15 8 3 15 9 15 14 0 15 -57 41 -80 37 -30 -6
-70 4 -70 17 0 5 14 7 33 4 24 -5 27 -4 12 3 -31 15 -65 13 -65 -3 0 -8 4 -18
10 -21 18 -11 10 -23 -13 -18 -21 4 -21 4 -4 -11 11 -8 25 -12 33 -9 10 3 12
0 8 -10 -3 -9 4 -21 17 -31 13 -8 20 -19 16 -23 -4 -4 5 -12 20 -18 24 -10 31
-9 46 6 10 11 23 19 29 19 6 0 8 -3 5 -7 -4 -3 -1 -13 6 -21 10 -13 9 -15 -7
-9 -16 6 -17 5 -6 -8 10 -12 10 -15 -4 -15 -9 0 -16 5 -16 10 0 6 -11 8 -25 4
-16 -4 -25 -2 -25 6 0 6 -5 8 -10 5 -6 -4 -19 -1 -28 6 -13 11 -12 8 2 -9 11
-12 26 -22 34 -22 8 0 12 -6 8 -15 -3 -8 -1 -15 4 -15 6 0 10 -4 10 -10 0 -5
-3 -9 -7 -7 -5 1 -9 -3 -11 -8 -1 -6 7 -11 19 -11 11 -1 26 -7 32 -13 9 -10 5
-11 -18 -5 -16 4 -35 11 -41 16 -6 4 -35 15 -63 24 -47 14 -51 17 -45 39 6 24
-5 31 -38 26 -5 0 -8 3 -8 8 0 5 -9 13 -21 16 -14 5 -18 10 -11 17 6 6 25 -1
53 -21 33 -22 45 -26 47 -15 2 8 8 14 14 14 5 0 8 -6 5 -12 -2 -7 3 -18 12
-25 9 -6 13 -15 8 -19 -4 -4 -13 -2 -19 4 -14 14 -28 16 -28 3 0 -7 70 -41 85
-41 15 0 2 20 -12 21 -15 0 -15 2 2 9 14 6 15 9 5 10 -8 1 -30 21 -47 46 -26
35 -29 44 -16 44 15 0 14 2 -3 18 -28 26 -55 34 -70 21 -15 -12 -10 -29 8 -29
5 0 8 7 5 15 -5 12 -2 12 18 3 26 -12 31 -23 16 -32 -5 -4 -12 0 -14 6 -4 10
-8 9 -17 -2 -9 -11 -13 -12 -17 -2 -2 6 -13 12 -24 12 -25 0 -24 16 0 32 15 9
17 15 9 25 -14 18 3 16 29 -2 16 -11 23 -12 31 -2 16 21 10 42 -15 43 -28 2
-29 -4 -5 -23 15 -12 13 -12 -10 -2 -16 7 -28 16 -28 21 0 4 -21 8 -46 8 -37
0 -45 -3 -40 -15 3 -8 1 -15 -5 -15 -6 0 -7 -4 -4 -10 9 -15 25 -12 25 6 0 8
5 12 10 9 8 -5 7 -11 -1 -21 -15 -18 -36 -18 -46 0 -4 7 -15 16 -23 20 -8 3
-5 4 8 2 15 -3 22 0 19 7 -5 15 -109 18 -120 3 -6 -8 -10 -7 -14 2 -5 14 -33
17 -33 3 0 -5 9 -13 20 -16 11 -3 20 -11 20 -16 0 -6 -13 -2 -29 7 -17 10 -28
20 -26 24 2 3 -6 7 -18 7 -21 2 -20 0 6 -22 15 -13 27 -27 27 -30 0 -12 -21
-3 -38 16 -9 11 -26 25 -37 31 -17 9 -17 7 4 -15 l23 -26 -23 1 c-30 2 -49 16
-43 32 3 8 -8 12 -36 13 -22 0 -40 -3 -40 -8 0 -5 4 -9 9 -9 5 0 22 -14 39
-31 17 -17 35 -28 42 -24 6 4 18 1 26 -6 8 -6 18 -9 21 -5 4 4 1 11 -7 16 -8
6 -10 10 -4 10 6 0 14 -3 17 -7 11 -10 57 -13 57 -2 0 5 5 9 12 9 6 0 8 -3 5
-7 -8 -7 11 -33 24 -33 5 0 9 7 9 16 0 8 -5 12 -10 9 -11 -7 -14 8 -3 18 12
12 32 -27 21 -40 -7 -9 -7 -13 0 -13 6 0 12 6 15 13 2 6 8 9 12 5 4 -4 0 -14
-8 -23 -10 -9 -18 -11 -22 -5 -4 6 -10 8 -15 5 -4 -3 -10 2 -14 10 -6 17 -36
21 -36 5 0 -5 -4 -10 -10 -10 -5 0 -7 7 -4 15 4 8 2 15 -2 15 -13 0 -36 -16
-35 -24 3 -18 0 -18 -13 -1 -7 11 -20 16 -29 12 -10 -4 -34 12 -68 44 -41 39
-59 49 -85 49 -19 0 -34 -5 -34 -10 0 -7 -7 -7 -21 0 -11 7 -23 9 -26 6 -3 -3
2 -8 11 -12 9 -3 16 -10 16 -15 0 -5 -10 -4 -21 3 -17 10 -23 10 -26 1 -3 -8
-14 -6 -36 8 -38 23 -54 25 -37 4 11 -13 10 -14 -4 -9 -9 3 -16 10 -16 15 0 5
-850 9 -2040 9 l-2040 0 0 -5120z m4285 5100 c3 -5 2 -10 -4 -10 -5 0 -13 5
-16 10 -3 6 -2 10 4 10 5 0 13 -4 16 -10z m345 -3 c0 -7 19 -22 42 -33 24 -10
46 -20 50 -22 3 -2 9 6 13 17 3 12 13 21 21 21 18 0 18 -8 -1 -26 -17 -18 -20
-34 -5 -34 6 0 10 -5 10 -11 0 -6 -9 -8 -20 -4 -14 5 -20 2 -20 -9 0 -9 3 -15
8 -14 11 2 45 -14 61 -29 25 -26 3 -24 -39 2 -43 27 -63 27 -40 0 11 -13 10
-14 -4 -9 -19 7 -22 44 -3 44 7 0 4 7 -7 15 -11 8 -27 15 -35 15 -13 -1 -12
-4 3 -15 11 -8 17 -17 14 -21 -10 -9 -49 16 -43 27 4 5 -4 18 -16 28 -20 16
-21 21 -10 34 7 9 10 21 6 27 -3 5 -1 10 4 10 6 0 11 -6 11 -13z m145 3 c3 -5
-1 -10 -9 -10 -8 0 -18 5 -21 10 -3 6 1 10 9 10 8 0 18 -4 21 -10z m1840 -8
c-3 -3 -11 0 -18 7 -9 10 -8 11 6 5 10 -3 15 -9 12 -12z m-585 4 c0 -3 -4 -8
-10 -11 -5 -3 -10 -1 -10 4 0 6 5 11 10 11 6 0 10 -2 10 -4z m32 -3 c-6 -2 -9
-10 -6 -15 4 -7 2 -8 -5 -4 -13 9 -5 26 12 25 9 0 8 -2 -1 -6z m468 -3 c0 -5
-2 -10 -4 -10 -3 0 -8 5 -11 10 -3 6 -1 10 4 10 6 0 11 -4 11 -10z m-2177 -33
c35 -31 39 -47 13 -47 -6 0 -5 4 3 9 8 5 9 11 3 15 -6 3 -18 -1 -26 -10 -15
-14 -17 -14 -32 0 -14 15 -14 16 5 16 27 0 26 7 -1 31 -13 10 -18 18 -12 19 6
0 27 -15 47 -33z m1197 25 c0 -4 -14 -13 -30 -20 -30 -14 -33 -36 -3 -25 11 4
14 2 11 -8 -6 -17 28 -49 51 -49 10 0 6 7 -11 18 -26 15 -37 32 -22 32 3 0 28
-19 56 -41 27 -23 52 -38 56 -34 4 4 3 9 -3 12 -23 8 -39 22 -33 28 8 8 52
-23 68 -49 10 -16 9 -18 -3 -13 -8 3 -25 -5 -38 -19 -25 -26 -21 -45 4 -19 9
8 19 15 23 15 4 0 4 -3 1 -7 -4 -3 -1 -13 6 -22 11 -14 10 -14 -5 -2 -11 8
-18 9 -18 3 0 -6 5 -14 10 -17 6 -3 10 -11 10 -18 0 -6 -6 -4 -12 5 -7 9 -20
18 -28 20 -10 3 -15 18 -16 44 0 25 -4 38 -12 37 -7 -2 -11 0 -11 5 3 19 -2
23 -16 12 -13 -11 -13 -14 2 -26 10 -7 13 -14 6 -14 -6 0 -14 4 -17 9 -4 5
-27 9 -53 8 l-46 0 24 -20 24 -20 -25 8 c-14 4 -28 12 -31 17 -3 5 -9 9 -13 9
-21 -3 -36 0 -36 8 0 5 24 8 53 7 88 -4 113 11 57 34 -16 7 -30 16 -30 21 0 5
-11 11 -25 15 -25 6 -35 24 -14 24 6 0 17 7 26 15 8 8 19 13 24 10 5 -4 9 -1
9 4 0 6 7 11 15 11 8 0 15 -3 15 -8z m-625 -12 c4 -6 11 -8 16 -4 5 3 21 -2
34 -10 14 -9 25 -12 25 -7 0 5 -7 12 -16 15 -9 4 -14 9 -11 12 3 3 17 -2 31
-11 l25 -17 -27 -24 c-20 -19 -23 -27 -13 -33 10 -7 9 -9 -3 -14 -9 -4 -23 3
-35 18 -10 14 -24 25 -30 25 -6 0 -11 5 -11 10 0 6 11 9 25 7 26 -3 47 -17 26
-17 -7 0 -9 -5 -5 -11 4 -8 9 -7 15 2 14 23 11 28 -31 40 -22 7 -40 16 -40 21
0 11 18 10 25 -2z m795 0 c0 -5 -4 -10 -10 -10 -5 0 -10 5 -10 10 0 6 5 10 10
10 6 0 10 -4 10 -10z m1115 0 c3 -5 2 -10 -4 -10 -5 0 -13 5 -16 10 -3 6 -2
10 4 10 5 0 13 -4 16 -10z m-2841 -8 c3 -5 -1 -9 -9 -9 -8 0 -12 4 -9 9 3 4 7
8 9 8 2 0 6 -4 9 -8z m301 -10 c-3 -3 -11 0 -18 7 -9 10 -8 11 6 5 10 -3 15
-9 12 -12z m1750 8 c3 -5 0 -12 -6 -16 -8 -5 -9 -3 -4 6 5 9 2 10 -14 5 -11
-3 -21 -3 -21 2 0 12 38 14 45 3z m135 0 c0 -5 -5 -10 -11 -10 -5 0 -7 5 -4
10 3 6 8 10 11 10 2 0 4 -4 4 -10z m455 -9 c-3 -6 2 -14 11 -19 11 -6 13 -11
5 -16 -6 -4 -11 -2 -11 3 0 6 -7 11 -15 11 -8 0 -15 -5 -15 -11 0 -5 -5 -7
-10 -4 -6 4 -1 14 12 25 26 22 32 24 23 11z m-2367 -26 c-3 -3 -9 2 -12 12 -6
14 -5 15 5 6 7 -7 10 -15 7 -18z m1936 10 c-4 -8 -11 -12 -16 -9 -6 4 -5 10 3
15 19 12 19 11 13 -6z m485 -19 c-3 -3 -11 5 -18 17 -13 21 -12 21 5 5 10 -10
16 -20 13 -22z m-2649 14 c0 -5 -2 -10 -4 -10 -3 0 -8 5 -11 10 -3 6 -1 10 4
10 6 0 11 -4 11 -10z m113 -5 c-3 -9 -8 -14 -10 -11 -3 3 -2 9 2 15 9 16 15
13 8 -4z m86 -1 c13 -12 -8 -10 -29 2 l-25 15 25 -7 c14 -3 27 -8 29 -10z
m1831 12 c0 -2 -8 -10 -17 -17 -16 -13 -17 -12 -4 4 13 16 21 21 21 13z
m-1776 -36 c-6 -6 -10 -2 -11 12 -2 16 1 18 10 9 7 -7 8 -14 1 -21z m162 -18
c-6 -5 -36 23 -36 34 0 4 9 -1 20 -11 11 -10 18 -20 16 -23z m1519 28 c3 -5 1
-10 -4 -10 -6 0 -11 5 -11 10 0 6 2 10 4 10 3 0 8 -4 11 -10z m199 -5 c-7 -17
-20 -20 -29 -6 -3 5 3 12 12 14 10 3 19 5 20 6 1 0 0 -6 -3 -14z m160 7 c3 -5
-1 -9 -9 -9 -8 0 -12 4 -9 9 3 4 7 8 9 8 2 0 6 -4 9 -8z m121 -2 c3 -5 1 -10
-4 -10 -6 0 -11 5 -11 10 0 6 2 10 4 10 3 0 8 -4 11 -10z m-2050 -9 c-3 -6 3
-14 12 -20 16 -9 16 -12 3 -21 -8 -5 -22 -9 -30 -9 -11 1 -10 3 3 6 19 5 23
19 5 25 -10 4 -4 28 8 28 3 0 3 -4 -1 -9z m1009 -44 c-4 -13 2 -21 25 -30 17
-6 31 -15 31 -19 0 -4 7 -8 15 -8 8 0 15 -4 15 -10 0 -14 -5 -13 -41 9 -17 11
-39 17 -47 13 -9 -3 -13 -1 -9 5 4 6 -3 14 -16 17 -21 6 -21 7 -4 20 15 12 15
15 2 26 -25 21 -17 32 10 13 16 -12 22 -24 19 -36z m86 38 c36 -19 39 -29 6
-21 -14 3 -28 2 -31 -4 -8 -13 -25 -13 -25 0 0 6 7 10 16 10 14 0 14 3 4 15
-16 19 -7 19 30 0z m704 0 c-4 -8 -1 -15 7 -15 7 0 10 -2 7 -5 -3 -3 -13 -3
-22 1 -13 5 -14 9 -5 20 15 18 20 18 13 -1z m-1984 -5 c0 -5 -2 -10 -4 -10 -3
0 -8 5 -11 10 -3 6 -1 10 4 10 6 0 11 -4 11 -10z m649 -6 c2 -2 2 -7 -2 -10
-8 -9 -47 6 -47 17 0 9 37 3 49 -7z m1081 6 c0 -5 -5 -10 -11 -10 -5 0 -7 5
-4 10 3 6 8 10 11 10 2 0 4 -4 4 -10z m585 0 c3 -5 1 -10 -4 -10 -6 0 -11 5
-11 10 0 6 2 10 4 10 3 0 8 -4 11 -10z m-2031 -15 c-4 -8 -11 -15 -16 -15 -6
0 -5 6 2 15 7 8 14 15 16 15 2 0 1 -7 -2 -15z m141 -1 c20 -16 20 -16 -2 -9
-14 4 -23 2 -23 -4 0 -6 -4 -11 -9 -11 -5 0 -7 9 -4 20 6 24 12 24 38 4z
m1355 6 c0 -5 -5 -10 -11 -10 -5 0 -7 5 -4 10 3 6 8 10 11 10 2 0 4 -4 4 -10z
m148 -8 c-10 -2 -18 -8 -18 -14 0 -6 -3 -8 -6 -5 -11 10 17 38 30 30 7 -5 5
-9 -6 -11z m-1813 -2 c3 -5 2 -10 -4 -10 -5 0 -13 5 -16 10 -3 6 -2 10 4 10 5
0 13 -4 16 -10z m1036 -13 c-13 -13 -26 -3 -16 12 3 6 11 8 17 5 6 -4 6 -10
-1 -17z m-826 3 c3 -6 -1 -7 -9 -4 -18 7 -21 14 -7 14 6 0 13 -4 16 -10z
m1395 0 c12 -8 10 -9 -7 -7 -12 2 -26 6 -29 10 -11 11 19 8 36 -3z m90 6 c0
-3 -4 -8 -10 -11 -5 -3 -10 -1 -10 4 0 6 5 11 10 11 6 0 10 -2 10 -4z m21 -19
c-10 -9 -11 -8 -5 6 3 10 9 15 12 12 3 -3 0 -11 -7 -18z m464 13 c3 -5 1 -10
-4 -10 -6 0 -11 5 -11 10 0 6 2 10 4 10 3 0 8 -4 11 -10z m-345 -10 c-8 -5
-19 -10 -25 -10 -5 0 -3 5 5 10 8 5 20 10 25 10 6 0 3 -5 -5 -10z m514 1 c3
-5 -1 -11 -9 -14 -9 -4 -12 -1 -8 9 6 16 10 17 17 5z m-2145 -20 c17 -13 19
-18 7 -18 -8 0 -18 7 -21 15 -4 11 -8 12 -19 3 -10 -9 -15 -8 -19 2 -7 19 25
18 52 -2z m164 -7 c33 -31 24 -54 -13 -34 -18 10 -25 9 -32 -1 -7 -11 -8 -9
-4 5 5 13 2 17 -8 13 -10 -4 -13 -1 -9 9 6 15 23 20 23 6 0 -9 44 -32 58 -32
4 0 -9 14 -28 30 -19 16 -30 30 -25 30 6 0 23 -12 38 -26z m47 10 c0 -8 -4
-12 -10 -9 -5 3 -10 10 -10 16 0 5 5 9 10 9 6 0 10 -7 10 -16z m1513 1 c-3 -9
-8 -14 -10 -11 -3 3 -2 9 2 15 9 16 15 13 8 -4z m102 4 c11 -16 1 -19 -13 -3
-7 8 -8 14 -3 14 5 0 13 -5 16 -11z m55 -9 c-8 -5 -17 -7 -19 -4 -3 3 1 9 9
14 8 5 17 7 19 4 3 -3 -1 -9 -9 -14z m70 10 c0 -5 -4 -10 -10 -10 -5 0 -10 5
-10 10 0 6 5 10 10 10 6 0 10 -4 10 -10z m-1655 -10 c3 -5 -1 -10 -9 -10 -19
0 -21 -16 -3 -23 6 -2 9 -8 5 -12 -4 -4 -13 -1 -21 6 -11 10 -12 18 -3 31 12
20 22 23 31 8z m1026 -14 c-7 -8 -10 -20 -6 -25 3 -7 0 -8 -9 -5 -20 8 -20 10
2 32 20 22 31 20 13 -2z m106 2 c-3 -8 -6 -5 -6 6 -1 11 2 17 5 13 3 -3 4 -12
1 -19z m573 18 c0 -3 -4 -8 -10 -11 -5 -3 -10 -1 -10 4 0 6 5 11 10 11 6 0 10
-2 10 -4z m-1520 -27 c0 -11 -3 -11 -24 -3 -23 9 -20 23 4 17 11 -3 20 -9 20
-14z m550 11 c8 -5 11 -12 7 -17 -5 -4 -12 -1 -16 6 -5 7 -14 10 -20 7 -6 -4
-11 -2 -11 3 0 13 20 14 40 1z m373 -24 c-3 -4 -9 -2 -14 5 -13 22 -11 31 5
17 8 -7 12 -17 9 -22z m-1331 2 c-9 -9 -15 -9 -24 1 -9 10 -9 12 -1 7 6 -3 15
-1 18 5 4 5 10 8 13 4 3 -3 0 -11 -6 -17z m162 7 c-4 -8 -13 -15 -20 -15 -12
0 -12 3 -2 15 17 19 29 19 22 0z m990 -9 c9 4 16 1 16 -6 0 -9 -10 -11 -30 -6
-23 4 -29 2 -24 -7 4 -7 3 -8 -2 -4 -5 5 -9 12 -9 15 0 4 -5 14 -10 22 -7 12
-3 11 17 -2 15 -10 34 -15 42 -12z m258 2 c-7 -7 -12 -8 -12 -2 0 14 12 26 19
19 2 -3 -1 -11 -7 -17z m-1617 2 c3 -6 -1 -7 -9 -4 -18 7 -21 14 -7 14 6 0 13
-4 16 -10z m678 -37 c-11 -16 -18 -20 -23 -12 -4 6 -13 8 -19 5 -6 -4 -11 -2
-11 3 0 6 12 11 26 11 19 0 25 4 21 14 -4 10 -1 13 8 10 12 -5 12 -10 -2 -31z
m47 27 c-12 -7 -11 -10 5 -16 35 -14 50 -33 35 -47 -10 -9 -11 -9 -6 0 3 6 -7
21 -24 33 -29 21 -32 40 -7 40 7 0 6 -4 -3 -10z m325 0 c8 -13 -15 -13 -35 0
-12 8 -11 10 7 10 12 0 25 -4 28 -10z m108 -3 c20 -11 23 -17 15 -25 -17 -17
-28 -15 -22 3 4 10 0 15 -15 15 -12 0 -21 5 -21 10 0 14 13 13 43 -3z m932 3
c3 -5 1 -10 -4 -10 -6 0 -11 5 -11 10 0 6 2 10 4 10 3 0 8 -4 11 -10z m45 0
c0 -5 -2 -10 -4 -10 -3 0 -8 5 -11 10 -3 6 -1 10 4 10 6 0 11 -4 11 -10z
m-2039 -18 c-7 -2 -18 1 -23 6 -8 8 -4 9 13 5 13 -4 18 -8 10 -11z m359 9 c0
-5 3 -18 7 -28 6 -17 6 -17 -10 -1 -19 18 -22 38 -7 38 6 0 10 -4 10 -9z
m-285 -30 c-6 -5 -25 10 -25 20 0 5 6 4 14 -3 8 -7 12 -15 11 -17z m205 18 c6
11 12 11 31 -3 13 -9 18 -16 12 -16 -7 0 -15 5 -18 10 -5 8 -11 8 -20 0 -14
-12 -45 -3 -45 12 0 6 7 5 16 -3 13 -10 17 -10 24 0z m156 -21 c9 -15 -37 1
-56 18 -13 13 -11 13 18 3 17 -6 35 -16 38 -21z m434 22 c0 -5 -5 -10 -11 -10
-5 0 -7 5 -4 10 3 6 8 10 11 10 2 0 4 -4 4 -10z m456 -9 c-8 -12 -46 -10 -46
2 0 5 9 5 20 2 13 -4 20 -2 20 6 0 7 3 10 6 6 3 -3 3 -10 0 -16z m-1111 -1 c3
-5 1 -10 -4 -10 -6 0 -11 5 -11 10 0 6 2 10 4 10 3 0 8 -4 11 -10z m482 4 c-3
-3 -12 -4 -19 -1 -8 3 -5 6 6 6 11 1 17 -2 13 -5z m108 -6 c-3 -7 -19 -14 -37
-14 -31 -1 -31 -1 -7 12 31 17 50 18 44 2z m130 2 c3 -5 1 -10 -4 -10 -6 0
-11 5 -11 10 0 6 2 10 4 10 3 0 8 -4 11 -10z m66 1 c-7 -5 -10 -14 -6 -21 5
-8 0 -7 -14 2 -29 18 -26 28 7 28 19 0 23 -3 13 -9z m39 -1 c0 -5 -4 -10 -10
-10 -5 0 -10 5 -10 10 0 6 5 10 10 10 6 0 10 -4 10 -10z m85 -1 c11 -16 1 -19
-13 -3 -7 8 -8 14 -3 14 5 0 13 -5 16 -11z m261 -17 c-13 -13 -17 -13 -31 -2
-16 13 -16 15 2 21 10 3 24 4 31 1 11 -4 11 -8 -2 -20z m-1409 12 c-3 -3 -12
-4 -19 -1 -8 3 -5 6 6 6 11 1 17 -2 13 -5z m638 -4 c3 -5 1 -10 -4 -10 -6 0
-11 5 -11 10 0 6 2 10 4 10 3 0 8 -4 11 -10z m225 0 c0 -5 -4 -10 -10 -10 -5
0 -10 5 -10 10 0 6 5 10 10 10 6 0 10 -4 10 -10z m43 -7 c-7 -3 -13 -9 -13
-14 0 -14 28 -11 33 4 2 6 8 9 12 4 5 -4 0 -14 -11 -21 -16 -13 -21 -12 -36 1
-17 15 -17 17 0 29 9 7 19 10 22 7 3 -3 -1 -8 -7 -10z m357 -3 c13 -11 20 -23
16 -27 -4 -4 -11 -1 -17 7 -8 13 -10 13 -19 0 -8 -13 -10 -13 -10 0 0 11 -3
11 -12 2 -7 -7 -16 -12 -21 -12 -5 0 -1 7 7 16 9 8 20 12 26 9 5 -3 10 -2 10
4 0 5 -6 12 -12 14 -8 3 -8 6 -2 6 6 1 21 -8 34 -19z m30 10 c0 -5 7 -10 15
-10 8 0 15 -5 15 -10 0 -7 -6 -7 -19 0 -24 12 -36 30 -22 30 6 0 11 -4 11 -10z
m170 -20 c-11 -11 -20 -24 -20 -30 0 -5 -5 -10 -11 -10 -6 0 -1 14 11 30 12
17 26 30 31 30 5 0 0 -9 -11 -20z m520 16 c0 -3 -4 -8 -10 -11 -5 -3 -10 -1
-10 4 0 6 5 11 10 11 6 0 10 -2 10 -4z m-1229 -24 c-7 -2 -18 1 -23 6 -8 8 -4
9 13 5 13 -4 18 -8 10 -11z m237 5 c8 -10 6 -13 -7 -13 -11 0 -17 6 -14 13 3
7 6 13 8 13 1 0 7 -6 13 -13z m139 7 c-3 -3 -12 -4 -19 -1 -8 3 -5 6 6 6 11 1
17 -2 13 -5z m53 -4 c0 -5 -4 -10 -10 -10 -5 0 -10 5 -10 10 0 6 5 10 10 10 6
0 10 -4 10 -10z m-660 -4 c0 -3 -4 -8 -10 -11 -5 -3 -10 -1 -10 4 0 6 5 11 10
11 6 0 10 -2 10 -4z m38 -12 c15 -15 14 -16 -6 -10 -15 5 -22 3 -22 -5 0 -7
-2 -10 -5 -7 -6 6 4 38 12 38 2 0 12 -7 21 -16z m52 6 c0 -5 -4 -10 -10 -10
-5 0 -10 5 -10 10 0 6 5 10 10 10 6 0 10 -4 10 -10z m195 -4 c12 -11 10 -17
-13 -35 -23 -18 -25 -23 -12 -31 9 -6 10 -10 3 -10 -6 0 -14 4 -18 10 -3 5
-12 7 -19 4 -8 -3 -17 -1 -21 5 -3 6 0 9 8 5 8 -3 27 6 43 20 16 14 23 26 17
26 -7 0 -13 5 -13 10 0 14 9 13 25 -4z m45 4 c8 -5 11 -10 5 -10 -5 0 -17 5
-25 10 -8 5 -10 10 -5 10 6 0 17 -5 25 -10z m235 0 c3 -6 -1 -7 -9 -4 -18 7
-21 14 -7 14 6 0 13 -4 16 -10z m425 6 c0 -2 -7 -6 -15 -10 -8 -3 -15 -1 -15
4 0 6 7 10 15 10 8 0 15 -2 15 -4z m-1040 -16 c0 -5 -5 -10 -11 -10 -5 0 -7
-4 -4 -10 3 -5 1 -10 -4 -10 -13 0 -13 3 -5 24 7 18 24 22 24 6z m195 -1 c4
-6 12 -8 19 -6 6 3 12 -4 12 -14 0 -25 -13 -24 -26 1 -6 11 -15 18 -21 15 -5
-4 -9 -1 -9 4 0 14 17 14 25 0z m485 7 c0 -3 -4 -8 -10 -11 -5 -3 -10 -1 -10
4 0 6 5 11 10 11 6 0 10 -2 10 -4z m217 -11 c0 -8 -4 -15 -9 -15 -10 0 -11 14
-1 23 9 10 10 9 10 -8z m353 1 c-4 -4 -16 -4 -26 2 -16 9 -14 10 8 9 15 -1 23
-6 18 -11z m-980 -16 c0 -5 -7 -7 -15 -4 -8 4 -12 10 -9 15 6 11 24 2 24 -11z
m30 10 c0 -5 -5 -10 -11 -10 -5 0 -7 5 -4 10 3 6 8 10 11 10 2 0 4 -4 4 -10z
m565 -8 c-3 -3 -11 0 -18 7 -9 10 -8 11 6 5 10 -3 15 -9 12 -12z m-432 -24 c4
-10 8 -9 16 2 13 19 14 0 1 -20 -8 -13 -11 -13 -19 -1 -5 7 -13 11 -19 7 -13
-8 -62 13 -62 26 0 5 9 6 20 3 12 -4 20 -2 20 5 0 14 36 -4 43 -22z m77 22 c0
-5 -5 -10 -11 -10 -5 0 -7 5 -4 10 3 6 8 10 11 10 2 0 4 -4 4 -10z m90 6 c0
-3 -4 -8 -10 -11 -5 -3 -10 -1 -10 4 0 6 5 11 10 11 6 0 10 -2 10 -4z m146 -8
c-9 -5 -23 -5 -32 0 -12 6 -7 9 16 9 23 0 28 -3 16 -9z m26 -18 c-12 -12 -22
-18 -22 -14 0 10 34 42 39 38 3 -2 -5 -13 -17 -24z m58 20 c0 -5 -4 -10 -10
-10 -5 0 -10 5 -10 10 0 6 5 10 10 10 6 0 10 -4 10 -10z m-880 -4 c0 -3 -4 -8
-10 -11 -5 -3 -10 -1 -10 4 0 6 5 11 10 11 6 0 10 -2 10 -4z m205 -24 c5 -14
4 -14 -13 1 -10 9 -22 14 -27 10 -4 -5 -5 -3 -1 4 8 15 32 7 41 -15z m395 14
c-7 -7 -14 -6 -21 1 -9 9 -7 12 9 10 14 -1 18 -5 12 -11z m145 4 c3 -5 2 -10
-4 -10 -5 0 -13 5 -16 10 -3 6 -2 10 4 10 5 0 13 -4 16 -10z m330 1 c3 -5 1
-12 -5 -16 -5 -3 -10 1 -10 9 0 18 6 21 15 7z m119 0 c3 -5 -1 -11 -9 -14 -9
-4 -12 -1 -8 9 6 16 10 17 17 5z m36 -21 c-24 -15 -36 -11 -14 4 10 8 21 12
24 10 2 -3 -2 -9 -10 -14z m-1110 -7 c0 -2 -8 -3 -17 -1 -12 2 -17 -3 -16 -16
1 -13 -2 -15 -10 -7 -14 14 9 42 29 34 8 -3 14 -7 14 -10z m443 5 c-2 -5 -13
-8 -24 -8 -10 0 -19 3 -19 8 0 4 11 7 24 7 13 0 22 -3 19 -7z m217 2 c0 -5 -4
-10 -10 -10 -5 0 -10 5 -10 10 0 6 5 10 10 10 6 0 10 -4 10 -10z m495 0 c-3
-5 -12 -10 -18 -10 -7 0 -6 4 3 10 19 12 23 12 15 0z m-1087 -13 c8 -10 6 -13
-7 -13 -11 0 -17 6 -14 13 3 7 6 13 8 13 1 0 7 -6 13 -13z m1152 9 c0 -2 -8
-10 -17 -17 -16 -13 -17 -12 -4 4 13 16 21 21 21 13z m-1060 -10 c0 -3 -4 -8
-10 -11 -5 -3 -10 -1 -10 4 0 6 5 11 10 11 6 0 10 -2 10 -4z m475 -14 c-3 -3
-11 0 -18 7 -9 10 -8 11 6 5 10 -3 15 -9 12 -12z m-415 -2 c4 0 10 -7 14 -15
4 -13 1 -12 -22 2 -36 23 -41 28 -19 20 10 -4 22 -7 27 -7z m331 -17 c13 -16
12 -17 -3 -4 -10 7 -18 15 -18 17 0 8 8 3 21 -13z m332 2 c4 -8 1 -17 -5 -21
-7 -4 -8 -3 -4 4 4 7 2 12 -4 12 -6 0 -8 5 -5 10 8 14 12 13 18 -5z m92 -4
c-3 -6 -11 -11 -16 -11 -5 0 -4 6 3 14 14 16 24 13 13 -3z m-1031 3 c9 -3 13
-11 10 -16 -4 -6 -10 -5 -14 3 -7 10 -12 10 -23 0 -12 -9 -17 -9 -23 0 -4 7
-3 9 4 5 6 -3 13 -2 17 4 7 12 8 12 29 4z m336 -4 c0 -5 -2 -10 -4 -10 -3 0
-8 5 -11 10 -3 6 -1 10 4 10 6 0 11 -4 11 -10z m60 -20 c0 -6 -9 -2 -20 7 -11
10 -20 19 -20 21 0 1 9 -2 20 -8 11 -6 20 -15 20 -20z m260 20 c0 -5 -5 -10
-11 -10 -5 0 -7 5 -4 10 3 6 8 10 11 10 2 0 4 -4 4 -10z m235 0 c-3 -5 -12
-10 -18 -10 -7 0 -6 4 3 10 19 12 23 12 15 0z m-364 -14 c5 3 9 0 9 -6 0 -7
-7 -9 -16 -6 -9 3 -18 6 -20 6 -3 0 -2 5 2 12 6 9 9 9 12 0 2 -7 8 -10 13 -6z
m53 -1 c-4 -8 -8 -15 -10 -15 -2 0 -4 7 -4 15 0 8 4 15 10 15 5 0 7 -7 4 -15z
m136 5 c0 -5 -2 -10 -4 -10 -3 0 -8 5 -11 10 -3 6 -1 10 4 10 6 0 11 -4 11
-10z m-560 -10 c0 -5 -4 -10 -10 -10 -5 0 -10 5 -10 10 0 6 5 10 10 10 6 0 10
-4 10 -10z m289 1 c7 -5 9 -11 5 -14 -5 -3 -15 1 -22 9 -14 16 -5 18 17 5z
m-565 -9 c3 -5 -1 -9 -9 -9 -8 0 -12 4 -9 9 3 4 7 8 9 8 2 0 6 -4 9 -8z m201
-10 c-3 -3 -11 0 -18 7 -9 10 -8 11 6 5 10 -3 15 -9 12 -12z m-585 -2 c0 -5
-2 -10 -4 -10 -3 0 -8 5 -11 10 -3 6 -1 10 4 10 6 0 11 -4 11 -10z m365 -20
c3 -5 1 -10 -4 -10 -6 0 -11 5 -11 10 0 6 2 10 4 10 3 0 8 -4 11 -10z m352 4
c-3 -3 -12 -4 -19 -1 -8 3 -5 6 6 6 11 1 17 -2 13 -5z m83 -4 c0 -5 -4 -10
-10 -10 -5 0 -10 5 -10 10 0 6 5 10 10 10 6 0 10 -4 10 -10z m65 -30 c3 -5 1
-10 -4 -10 -6 0 -11 5 -11 10 0 6 2 10 4 10 3 0 8 -4 11 -10z m412 -45 c0 -8
-4 -12 -9 -9 -5 3 -6 10 -3 15 9 13 12 11 12 -6z m-557 -545 c0 -5 -4 -10 -10
-10 -5 0 -10 5 -10 10 0 6 5 10 10 10 6 0 10 -4 10 -10z m0 -30 c0 -5 -4 -10
-10 -10 -5 0 -10 5 -10 10 0 6 5 10 10 10 6 0 10 -4 10 -10z m3 -57 c10 -81
41 -212 49 -207 4 3 8 -6 8 -20 0 -13 5 -26 10 -28 7 -2 7 -20 1 -52 -5 -28
-5 -61 0 -79 5 -16 6 -34 3 -38 -3 -5 0 -9 6 -9 6 0 9 -4 5 -9 -3 -5 -1 -12 5
-16 5 -3 10 -11 10 -18 0 -16 -86 83 -100 115 -10 23 -9 30 4 43 28 28 17 27
-19 -2 -19 -15 -35 -33 -35 -39 0 -15 -51 -74 -64 -74 -6 0 -19 -9 -28 -19
-17 -20 -27 -22 -248 -42 -255 -22 -701 -136 -949 -242 -92 -38 -168 -71 -169
-73 -8 -6 121 -133 129 -128 5 3 7 -1 4 -8 -7 -17 95 -130 151 -169 37 -25 43
-33 33 -45 -6 -8 -28 -17 -49 -20 -35 -6 -39 -10 -70 -81 -71 -160 -294 -338
-425 -338 -44 0 -59 6 -115 46 -78 56 -157 137 -192 199 -28 48 -44 135 -33
171 11 32 21 8 30 -68 9 -82 41 -131 145 -222 96 -85 137 -106 194 -97 153 25
366 244 366 378 0 65 -62 141 -287 351 -48 45 -63 55 -70 43 -4 -8 -51 -50
-104 -94 -52 -44 -133 -120 -180 -169 -46 -50 -98 -97 -116 -106 l-31 -17 -23
38 c-13 20 -25 40 -27 43 -1 4 17 18 41 32 24 15 125 106 225 204 146 145 183
186 194 221 l13 43 39 -40 39 -39 23 28 c32 38 288 162 399 194 33 10 78 28
100 40 73 42 315 93 315 67 0 -11 -23 -20 -224 -81 -235 -73 -328 -112 -491
-205 -49 -29 -95 -54 -102 -56 -7 -2 6 -24 34 -52 25 -27 49 -45 52 -40 12 16
297 141 395 174 131 43 441 109 696 149 69 11 135 21 148 23 12 2 28 9 34 15
15 15 32 16 23 2 -4 -6 10 -10 34 -10 23 0 44 -1 49 -2 4 -1 9 7 11 18 5 29
33 57 42 43 4 -7 7 -2 8 12 0 13 1 40 2 59 1 19 0 42 -2 50 -3 9 3 14 14 14
13 -2 15 1 7 11 -7 9 -3 25 15 58 16 29 22 48 15 52 -7 4 -7 12 1 26 6 11 11
45 11 75 2 62 14 72 21 17z m-678 -53 c-3 -5 -10 -10 -16 -10 -5 0 -9 5 -9 10
0 6 7 10 16 10 8 0 12 -4 9 -10z m146 -29 c32 -26 23 -32 -31 -18 -54 14 -54
13 -45 26 10 17 51 13 76 -8z m-221 -20 c0 -5 -5 -11 -11 -13 -5 -2 -11 -18
-11 -36 -1 -20 -6 -32 -15 -32 -24 0 -25 28 -2 59 22 31 39 40 39 22z m1295
-1 c4 -6 -5 -10 -19 -10 -14 0 -26 5 -26 10 0 6 9 10 19 10 11 0 23 -4 26 -10z
m255 -49 c15 -29 13 -32 -17 -25 -37 9 -38 11 -23 29 17 20 27 19 40 -4z
m-1330 -16 c9 -11 10 -27 4 -57 l-9 -42 -18 27 c-10 15 -20 41 -24 57 -5 25
-2 30 15 30 11 0 25 -7 32 -15z m1068 -46 c-9 -35 -8 -46 11 -79 26 -46 26
-50 3 -50 -20 0 -34 25 -52 90 -13 47 -6 77 18 83 28 6 30 -1 20 -44z m-662
14 c11 -12 13 -18 5 -21 -9 -3 -9 -7 0 -19 10 -11 8 -18 -9 -35 l-21 -21 1 31
c1 40 -18 65 -41 53 -22 -12 -195 -41 -243 -41 -32 0 -39 3 -36 17 4 24 47 33
170 36 59 1 110 6 114 10 13 12 42 8 60 -10z m381 -9 c118 -7 195 -26 177 -44
-10 -10 -141 4 -219 24 -61 15 -92 9 -110 -24 -14 -24 -14 -24 -15 -3 0 12 -3
30 -6 40 -4 13 -3 14 4 5 7 -11 10 -10 16 3 3 10 12 15 21 11 8 -3 67 -8 132
-12z m-3207 -80 c30 -31 65 -60 78 -65 33 -13 27 -44 -15 -81 -99 -87 -133
-122 -133 -134 0 -15 57 -52 99 -64 27 -8 34 -4 66 31 20 23 35 49 35 64 0 14
4 25 9 25 12 0 100 -73 98 -81 -3 -8 -119 -105 -188 -157 -51 -39 -109 -56
-109 -33 0 5 24 32 52 59 29 28 50 53 47 56 -3 3 -30 9 -60 13 -58 9 -54 4
-100 105 -7 16 -14 26 -17 23 -3 -2 -23 11 -45 30 -22 19 -47 35 -54 35 -7 0
-13 4 -13 9 0 17 176 221 190 221 3 0 30 -25 60 -56z m2300 11 c-7 -8 -23 -15
-35 -15 -13 0 -25 7 -29 15 -4 12 3 15 36 15 35 0 39 -2 28 -15z m3523 -19
c49 -39 99 -66 123 -66 9 0 45 20 80 45 34 25 67 45 73 45 18 0 12 -21 -15
-53 l-26 -30 3 -195 3 -195 -32 -28 -31 -28 35 -40 c20 -22 53 -51 73 -66 32
-21 37 -30 33 -55 -2 -17 -6 -30 -8 -30 -1 0 -27 26 -56 57 -29 31 -62 67 -73
78 -11 12 -19 29 -17 38 6 28 -11 18 -43 -26 -29 -40 -161 -156 -179 -157 -4
0 -5 15 -1 33 9 38 18 582 10 614 -3 12 -16 35 -30 51 -23 27 -24 31 -8 35 36
9 45 6 86 -27z m-4681 7 c33 -30 19 -103 -21 -103 -22 0 -51 31 -50 54 0 20 1
20 9 -2 13 -30 38 -38 58 -19 14 14 14 20 2 42 -11 20 -20 25 -37 22 -24 -4
-32 8 -10 16 21 9 30 7 49 -10z m3681 0 c15 -17 13 -18 -22 -18 -39 0 -47 19
-13 28 10 3 17 5 18 6 0 0 8 -7 17 -16z m-1781 -38 c0 -20 -3 -39 -6 -42 -3
-4 -6 15 -6 42 0 27 3 46 6 42 3 -3 6 -22 6 -42z m635 17 c18 -24 32 -30 102
-41 119 -18 237 -59 501 -174 216 -94 237 -106 243 -129 9 -31 2 -33 -30 -11
-38 26 -173 90 -253 120 -36 13 -96 37 -135 53 -64 27 -245 85 -435 141 -103
30 -132 69 -51 69 29 0 42 -6 58 -28z m-1286 9 c4 7 11 10 16 6 8 -9 -8 -39
-23 -44 -5 -1 -15 1 -23 6 -13 8 -13 12 -1 26 10 12 15 14 18 5 3 -9 6 -9 13
1z m-1491 -53 c25 -28 26 -52 0 -78 -23 -23 -34 -25 -48 -7 -8 10 -5 13 16 12
20 0 28 5 30 21 4 26 -25 57 -46 49 -12 -4 -13 -3 -2 10 17 20 25 19 50 -7z
m4129 -20 c13 -22 13 -23 -6 -5 -19 16 -20 16 -36 -1 -27 -30 -22 -52 13 -52
32 0 40 -14 14 -24 -33 -13 -70 26 -57 62 17 47 50 56 72 20z m-2085 -5 c41
-106 395 -465 641 -651 55 -42 159 -134 230 -205 165 -165 131 -144 -52 32
-77 73 -162 148 -190 165 -122 76 -300 229 -578 498 l-70 68 -125 -122 c-69
-67 -114 -115 -100 -108 23 12 24 12 11 -3 -7 -10 -19 -17 -26 -17 -15 0 -65
-39 -51 -40 5 0 18 7 28 17 10 9 18 11 18 5 0 -6 -26 -29 -58 -51 -32 -21 -69
-51 -83 -65 -13 -14 -32 -26 -41 -26 -10 0 -18 -4 -18 -10 0 -5 -6 -10 -14
-10 -8 0 -16 -3 -18 -7 -1 -5 -43 -44 -93 -88 -49 -44 -94 -85 -100 -91 -19
-20 -135 -105 -135 -98 0 3 -8 1 -17 -7 -10 -7 -4 1 14 18 17 17 47 41 65 54
18 13 42 32 53 43 11 12 61 57 109 101 184 166 495 486 546 562 38 57 45 61
54 36z m1826 -3 c0 -5 -4 -10 -10 -10 -5 0 -10 5 -10 10 0 6 5 10 10 10 6 0
10 -4 10 -10z m-1726 -16 c3 -8 2 -12 -4 -9 -6 3 -10 10 -10 16 0 14 7 11 14
-7z m44 -42 c16 -16 41 -20 158 -25 76 -3 177 -12 224 -21 47 -8 140 -25 206
-36 200 -34 467 -122 668 -220 87 -43 96 -50 61 -45 -22 2 -102 29 -178 60
-230 92 -420 148 -657 194 -81 16 -251 30 -365 32 -112 1 -145 14 -145 54 0
30 4 31 28 7z m-3304 -168 c95 -101 126 -140 126 -161 0 -21 -14 -15 -50 20
-25 24 -30 27 -21 10 6 -13 16 -23 20 -23 5 0 12 -7 15 -16 5 -12 0 -11 -22 4
-46 33 -212 193 -212 205 0 10 39 57 48 57 2 0 45 -43 96 -96z m956 66 c0 -5
-2 -10 -4 -10 -3 0 -8 5 -11 10 -3 6 -1 10 4 10 6 0 11 -4 11 -10z m1909 -61
c-72 -83 -108 -109 -152 -109 -20 0 -80 -11 -134 -24 -54 -13 -150 -36 -213
-51 -63 -15 -135 -34 -160 -42 -77 -26 -324 -123 -352 -138 -32 -18 -50 -1
-22 20 42 30 411 158 578 200 99 25 182 48 185 52 7 7 -22 2 -153 -27 -97 -21
-147 -23 -64 -2 24 6 81 20 128 31 47 12 119 22 161 24 73 2 78 4 133 47 55
43 107 80 114 80 2 0 -20 -27 -49 -61z m1476 51 c3 -6 -1 -7 -9 -4 -18 7 -21
14 -7 14 6 0 13 -4 16 -10z m-1147 -53 c12 -11 22 -25 22 -31 0 -13 37 -46
169 -153 127 -103 258 -233 234 -233 -5 0 -66 55 -135 123 -69 67 -154 140
-189 161 -35 22 -85 54 -110 73 l-47 33 -43 -43 c-50 -48 -77 -71 -204 -177
-113 -95 -125 -104 -125 -97 0 10 111 117 215 206 111 95 165 149 165 163 0
11 17 2 48 -25z m1674 -27 c2 -12 98 -116 213 -231 191 -191 213 -210 238
-205 15 3 27 1 27 -4 0 -6 -4 -10 -8 -10 -5 0 -9 -17 -10 -37 -1 -21 -5 -51
-8 -68 -6 -27 -8 -28 -16 -10 -6 14 -7 8 -3 -20 2 -22 0 -47 -6 -55 -9 -13
-10 -13 -6 0 2 8 -2 20 -9 25 -7 6 -14 32 -16 58 -1 35 -7 51 -20 58 -18 10
-19 7 -12 -27 13 -69 9 -167 -8 -200 -24 -43 -144 -154 -217 -198 -88 -54
-125 -57 -208 -16 -82 40 -234 184 -276 259 -16 28 -24 51 -19 51 5 0 2 27 -6
60 -16 63 -22 68 -62 45 -32 -18 -70 -18 -94 0 -11 8 -18 16 -15 18 2 2 21 15
42 29 21 14 54 44 73 66 l35 41 -25 16 c-38 25 -246 112 -376 156 -120 42
-285 78 -454 101 -95 12 -101 15 -145 54 -25 23 -42 46 -38 51 5 4 14 1 20 -8
17 -22 123 -56 237 -74 194 -32 451 -114 698 -221 57 -25 110 -43 117 -41 6 3
85 84 174 181 89 97 166 176 171 176 5 0 10 -9 12 -20z m-1872 -13 c0 -2 -12
-14 -27 -28 l-28 -24 24 28 c23 25 31 32 31 24z m-1656 -81 c-3 -8 -27 -24
-52 -36 -26 -12 -63 -34 -82 -49 -40 -31 -277 -184 -321 -207 -16 -8 -29 -11
-29 -7 0 14 211 167 260 189 8 4 24 15 35 25 11 10 49 32 85 49 36 17 72 35
80 40 22 13 30 12 24 -4z m2533 8 c-3 -3 -12 -4 -19 -1 -8 3 -5 6 6 6 11 1 17
-2 13 -5z m102 -20 c9 -8 -45 -2 -64 6 -14 7 -8 8 20 3 22 -3 42 -7 44 -9z
m-1709 -25 c-36 -11 -92 -28 -125 -38 -33 -11 -71 -22 -85 -25 -23 -7 -24 -6
-5 6 25 15 233 77 260 76 11 0 -9 -9 -45 -19z m1852 -13 c181 -61 285 -102
339 -135 72 -43 39 -34 -105 30 -66 28 -176 71 -245 95 -69 24 -118 44 -109
44 10 0 64 -16 120 -34z m-3322 -9 c0 -5 -4 -5 -10 -2 -5 3 -10 14 -10 23 0
15 2 15 10 2 5 -8 10 -19 10 -23z m2883 -31 c66 -37 208 -138 203 -143 -3 -3
-19 -1 -35 5 -51 18 -35 3 27 -25 34 -15 77 -47 107 -77 59 -62 221 -195 238
-197 7 -1 16 -1 20 0 4 1 23 -10 41 -24 39 -30 47 -31 40 -7 -5 13 -4 14 4 3
6 -8 8 -21 4 -29 -3 -9 -1 -13 4 -9 11 6 26 -24 59 -119 l22 -64 -23 0 c-12 0
-26 5 -29 10 -3 6 1 10 9 10 19 0 14 28 -11 67 -31 49 -63 73 -49 37 10 -25
-42 18 -204 172 -82 77 -181 162 -221 189 -39 26 -74 55 -76 64 -2 9 -19 26
-36 39 -94 67 -173 124 -177 129 -10 11 46 -10 83 -31z m1863 -3 c-11 -11 -19
6 -11 24 8 17 8 17 12 0 3 -10 2 -21 -1 -24z m-385 -6 c30 -17 91 -52 134 -77
77 -44 170 -118 161 -128 -3 -2 -40 18 -83 45 -43 28 -105 64 -138 81 -71 36
-145 88 -145 102 0 16 11 12 71 -23z m-4903 -63 c69 -63 71 -66 56 -88 l-15
-24 -58 62 c-119 125 -107 163 17 50z m1741 42 c-7 -6 -189 -84 -189 -81 0 7
74 49 118 66 42 16 82 25 71 15z m511 -86 c-41 -39 -93 -82 -117 -96 -34 -20
-238 -94 -259 -94 -10 0 1 45 11 46 6 0 36 12 67 27 31 15 67 27 80 27 45 0
215 97 262 149 11 12 22 19 24 16 3 -3 -28 -37 -68 -75z m-2447 45 c-3 -9 -8
-14 -10 -11 -3 3 -2 9 2 15 9 16 15 13 8 -4z m3146 -82 c39 -53 42 -61 36 -99
-5 -36 -3 -43 12 -47 17 -4 17 -4 -1 -12 -11 -5 -21 -3 -26 5 -6 10 -15 7 -40
-13 -37 -31 -50 -27 -99 28 -42 49 -40 72 14 125 25 24 45 50 45 57 0 25 17
12 59 -44z m2041 17 c0 -5 -4 -10 -10 -10 -5 0 -10 5 -10 10 0 6 5 10 10 10 6
0 10 -4 10 -10z m-5444 -86 c57 -44 27 -46 -36 -2 -46 31 -60 47 -60 65 l0 25
31 -32 c17 -17 46 -42 65 -56z m2865 49 c-46 -62 -60 -77 -66 -71 -6 5 72 98
83 98 2 0 -6 -12 -17 -27z m-1589 5 c-6 -7 -25 -21 -44 -32 l-33 -19 35 31
c35 31 62 43 42 20z m5538 -2 c0 -14 -98 -91 -106 -83 -5 5 88 97 98 97 4 0 8
-6 8 -14z m-2850 -111 c81 -55 160 -122 160 -137 0 -13 -53 25 -130 95 -36 32
-84 67 -107 78 -40 18 -52 36 -36 53 4 4 15 -4 25 -17 10 -14 49 -46 88 -72z
m290 55 c8 -5 12 -12 9 -15 -8 -8 -39 5 -39 16 0 11 11 11 30 -1z m-3305 -40
c21 -23 4 -27 -19 -4 -18 17 -20 24 -8 24 5 0 17 -9 27 -20z m649 -7 c-13 -27
-21 -203 -9 -203 3 0 24 9 46 21 56 28 61 16 11 -27 -23 -19 -42 -40 -42 -45
0 -18 78 -8 126 16 65 33 80 32 88 -6 7 -35 0 -52 -17 -46 -7 2 -34 -2 -62 -9
-27 -8 -87 -14 -132 -14 l-82 0 4 133 c3 143 12 183 47 197 36 14 38 12 22
-17z m2770 6 c17 -15 -3 -23 -29 -11 -14 7 -35 12 -45 12 -11 0 -20 5 -20 10
0 12 80 2 94 -11z m-538 -155 c39 -30 78 -62 85 -71 8 -10 -2 -6 -21 9 -19 16
-78 57 -130 93 -52 36 -113 81 -135 101 -47 41 84 -45 201 -132z m-1066 153
c0 -2 -14 -16 -32 -33 l-32 -29 25 32 c20 27 39 41 39 30z m3044 -3 c28 -11
17 -26 -14 -22 -16 2 -31 0 -33 -6 -2 -5 -9 -6 -16 -2 -9 6 -9 11 0 22 12 15
37 18 63 8z m-2579 -34 c3 -5 -3 -10 -15 -10 -12 0 -18 5 -15 10 3 6 10 10 15
10 5 0 12 -4 15 -10z m-2085 -15 c0 -19 -17 -36 -140 -140 -117 -98 -281 -265
-274 -277 3 -5 1 -7 -4 -6 -5 2 -21 -8 -35 -22 -14 -14 -31 -29 -37 -35 -6 -5
-25 -26 -43 -46 -18 -19 -26 -28 -19 -19 6 9 12 22 12 28 0 7 27 40 59 74 33
35 73 80 89 101 45 56 114 122 124 119 5 -1 7 2 4 7 -3 5 13 24 36 42 24 19
66 55 93 80 50 47 125 109 131 109 2 0 4 -7 4 -15z m2375 -3 c-3 -3 -11 0 -18
7 -9 10 -8 11 6 5 10 -3 15 -9 12 -12z m-866 -62 c-41 -48 -49 -56 -49 -45 0
7 81 95 87 95 2 0 -15 -22 -38 -50z m3151 46 c0 -9 -30 -14 -35 -6 -4 6 3 10
14 10 12 0 21 -2 21 -4z m-5051 -32 c8 -7 11 -17 7 -21 -4 -4 -11 -2 -15 5 -4
7 -22 14 -39 14 -26 1 -30 4 -21 15 13 15 45 9 68 -13z m1671 13 c0 -20 -106
-133 -167 -178 -29 -22 -51 -44 -48 -49 3 -5 -4 -14 -15 -20 -11 -6 -20 -15
-20 -20 0 -6 24 6 53 25 122 81 115 62 -10 -27 -43 -30 -85 -58 -94 -61 -28
-9 -12 24 37 78 24 27 45 54 45 60 1 5 2 16 3 23 1 16 147 152 162 152 6 0 17
7 24 15 15 19 30 19 30 2z m3225 -13 l17 -27 -26 19 c-26 19 -33 34 -17 34 5
0 16 -12 26 -26z m415 16 c0 -5 -4 -10 -10 -10 -5 0 -10 5 -10 10 0 6 5 10 10
10 6 0 10 -4 10 -10z m-3100 -4 c0 -2 -8 -10 -17 -17 -16 -13 -17 -12 -4 4 13
16 21 21 21 13z m-739 -53 c-12 -20 -14 -14 -5 12 4 9 9 14 11 11 3 -2 0 -13
-6 -23z m689 12 c-7 -9 -27 -25 -44 -36 -24 -16 -22 -12 9 15 43 38 55 46 35
21z m3136 -22 c-4 -4 -11 -1 -16 7 -16 25 -11 35 7 17 9 -9 13 -20 9 -24z
m-3596 23 c0 -2 -8 -10 -17 -17 -16 -13 -17 -12 -4 4 13 16 21 21 21 13z
m-2492 -218 c-2 -194 -2 -197 -7 -72 -6 131 -3 274 5 274 2 0 3 -91 2 -202z
m4732 192 c0 -5 -4 -10 -10 -10 -5 0 -10 5 -10 10 0 6 5 10 10 10 6 0 10 -4
10 -10z m-1302 -61 c107 -119 530 -503 777 -704 185 -151 280 -240 540 -504
413 -420 477 -483 605 -596 123 -109 532 -502 538 -517 2 -4 -6 -8 -18 -8 -13
0 -58 35 -118 92 -53 51 -91 86 -84 78 6 -8 12 -19 12 -24 0 -6 -15 12 -34 39
-29 44 -110 129 -93 99 4 -7 -50 45 -120 114 -70 70 -128 121 -130 115 -2 -6
-37 21 -78 60 -114 111 -165 154 -165 140 0 -16 104 -123 120 -123 14 0 73
-61 66 -68 -19 -18 -191 152 -285 281 -24 32 -45 57 -47 55 -2 -3 7 -42 21
-89 13 -46 24 -93 24 -104 -1 -12 -4 -8 -10 13 -5 17 -14 32 -19 32 -5 0 -7 7
-4 15 4 11 2 13 -9 9 -10 -3 -18 2 -22 15 -3 12 -12 21 -18 21 -7 0 -29 34
-49 75 -52 105 -125 202 -247 333 -96 101 -168 164 -401 350 -239 190 -533
442 -700 600 l-94 90 -161 -152 c-220 -208 -433 -393 -605 -526 -198 -154
-314 -256 -450 -396 -119 -123 -169 -190 -210 -284 -25 -57 -58 -112 -47 -77
10 27 1 20 -22 -19 -28 -47 -60 -134 -76 -207 -16 -74 -27 -86 -19 -21 10 75
48 181 95 262 23 40 39 75 36 78 -3 3 -34 -23 -68 -58 -34 -34 -66 -62 -71
-60 -5 1 -7 -1 -4 -6 3 -5 -14 -26 -36 -48 -23 -21 -36 -31 -29 -21 23 30 4
19 -41 -25 -24 -23 -51 -42 -60 -43 -10 -1 -41 -24 -70 -51 -29 -27 -69 -63
-89 -80 -19 -16 -38 -38 -42 -47 -3 -9 -11 -17 -17 -17 -6 0 -8 6 -4 13 4 6
-2 4 -14 -7 -12 -10 -20 -23 -19 -29 1 -6 -7 -13 -19 -16 -11 -3 -37 -25 -58
-48 -21 -24 -43 -43 -50 -43 -17 -1 -71 -48 -63 -56 4 -4 17 2 30 13 39 35 53
37 22 4 -37 -40 -67 -59 -59 -36 9 22 -10 19 -31 -5 -18 -20 -18 -21 1 -15 10
4 -12 -23 -49 -60 -49 -47 -73 -64 -86 -60 -16 5 -18 1 -15 -26 3 -26 1 -29
-10 -20 -8 7 -18 10 -22 9 -5 -2 -11 0 -14 4 -8 10 159 177 251 252 98 79 477
442 624 596 186 196 486 492 565 557 41 35 149 123 240 197 91 73 206 170 255
216 129 118 453 439 482 478 14 17 27 32 29 32 2 0 21 -19 42 -41z m2068 -57
c-11 -10 -12 3 -7 53 l6 50 3 -49 c2 -26 1 -51 -2 -54z m-2626 84 c0 -2 -8
-10 -17 -17 -16 -13 -17 -12 -4 4 13 16 21 21 21 13z m3932 -133 c-1 -70 -4
-129 -7 -131 -3 -3 -5 57 -5 133 0 76 3 135 7 132 3 -4 6 -64 5 -134z m-6476
107 c0 -11 -6 -20 -13 -20 -7 0 -13 5 -13 11 0 6 -7 9 -15 6 -8 -4 -17 -2 -20
3 -3 5 9 11 27 13 18 2 33 5 33 5 1 1 1 -7 1 -18z m1895 -23 c-8 -8 -11 -5
-11 9 0 27 14 41 18 19 2 -9 -1 -22 -7 -28z m4306 21 c12 -15 6 -67 -9 -85
-12 -14 -64 -18 -72 -5 -3 5 7 7 23 4 34 -5 56 19 47 53 -8 32 -26 32 -60 0
-21 -19 -26 -21 -26 -8 0 42 73 72 97 41z m-5313 -11 c-2 -7 -71 -76 -153
-154 -178 -170 -351 -388 -427 -536 -19 -37 -51 -93 -71 -125 -21 -31 -50 -79
-65 -107 -44 -80 -32 -41 18 59 58 114 85 161 147 256 28 41 66 100 86 130 35
53 65 91 196 250 33 40 103 110 155 156 89 78 126 101 114 71z m1616 9 c0 -2
-8 -10 -17 -17 -16 -13 -17 -12 -4 4 13 16 21 21 21 13z m2810 -6 c0 -5 64
-75 143 -153 78 -79 169 -179 202 -223 33 -43 63 -81 68 -82 4 -2 5 -8 2 -13
-3 -4 15 -33 39 -64 25 -30 53 -70 62 -88 9 -17 29 -48 44 -67 14 -19 40 -64
57 -100 91 -197 106 -231 100 -236 -3 -4 -14 13 -24 37 -60 152 -250 457 -371
597 -31 37 -115 126 -186 199 -71 72 -135 142 -142 155 -16 28 -18 48 -4 48 6
0 10 -4 10 -10z m-4307 -33 c3 -7 -7 -13 -24 -14 -19 -1 -29 3 -29 12 0 25 43
27 53 2z m4602 -49 c110 -100 315 -375 292 -390 -12 -8 -1 -12 18 -8 6 1 7 -2
3 -5 -4 -4 -3 -17 3 -29 6 -14 1 -10 -15 9 -15 17 -24 36 -21 43 3 7 1 11 -4
8 -5 -3 -24 18 -42 46 -66 103 -157 214 -242 297 -121 117 -114 141 8 29z
m-4956 25 c-18 -21 -44 -47 -58 -57 -14 -11 -1 6 29 37 62 65 78 75 29 20z
m2053 22 c-2 -5 -14 -9 -27 -7 -13 2 -33 -2 -44 -8 -22 -11 -28 -30 -11 -30
19 0 70 -43 70 -59 0 -23 -41 -61 -65 -61 -25 0 -103 53 -112 76 -3 8 3 21 13
29 26 20 34 18 34 -4 0 -33 11 -51 42 -67 27 -14 32 -14 54 1 29 19 27 39 -5
43 -12 2 -27 12 -34 23 -6 10 -17 19 -24 19 -21 0 -15 28 10 45 24 17 104 17
99 0z m845 -11 c38 -24 58 -62 47 -91 -13 -36 -57 -67 -86 -60 -32 8 -65 34
-55 43 4 5 11 4 15 -2 11 -17 60 -26 81 -15 32 18 32 39 0 76 -36 41 -71 46
-87 13 -9 -20 -11 -18 -11 21 l-1 43 38 -7 c20 -3 47 -13 59 -21z m-1661 4 c4
-7 3 -8 -4 -4 -7 4 -12 0 -12 -10 0 -10 -3 -15 -6 -11 -7 6 2 37 10 37 3 0 8
-5 12 -12z m-1931 -28 c3 -5 -1 -10 -9 -10 -9 0 -16 5 -16 10 0 6 4 10 9 10 6
0 13 -4 16 -10z m3564 -43 c6 -8 8 -17 4 -20 -12 -12 -53 -7 -53 6 0 28 30 37
49 14z m-1053 -111 c28 -28 34 -41 34 -78 0 -49 -22 -78 -73 -97 -35 -14 -132
-14 -102 -1 11 5 43 19 70 31 28 13 58 22 68 21 13 -1 17 6 17 27 0 37 -32 76
-81 101 -21 11 -39 23 -39 25 0 3 16 5 36 5 28 0 44 -8 70 -34z m1302 20 c-42
-13 -86 -50 -99 -85 -13 -31 11 -68 44 -68 13 0 46 -11 73 -24 l49 -23 -40 -4
c-103 -8 -171 56 -146 138 16 54 52 80 110 79 l46 -1 -37 -12z m1572 -110 c0
-5 -6 -4 -12 1 -46 35 -104 78 -107 80 -1 1 0 6 4 12 6 11 115 -76 115 -93z
m-1046 78 c10 -25 -1 -29 -14 -5 -6 12 -7 21 -1 21 5 0 12 -7 15 -16z m1954 4
c-8 -22 -38 -34 -47 -19 -6 10 -19 12 -42 8 -32 -6 -33 -6 -15 8 24 18 110 21
104 3z m-6322 -13 c16 -12 16 -14 3 -15 -9 0 -22 7 -29 15 -16 19 0 19 26 0z
m2000 -12 c-10 -10 -19 5 -10 18 6 11 8 11 12 0 2 -7 1 -15 -2 -18z m-93 -16
c-17 -20 -29 -28 -31 -20 -2 8 7 22 20 33 36 30 43 23 11 -13z m1262 -18 c4
-10 95 -102 203 -204 186 -176 203 -189 302 -238 129 -63 223 -117 217 -124
-3 -2 -40 15 -84 38 -43 24 -72 36 -65 26 21 -25 137 -87 165 -87 14 0 27 -7
31 -15 3 -8 12 -15 20 -15 8 0 17 -4 21 -10 18 -29 -81 6 -235 83 -156 79
-182 95 -240 155 -117 121 -367 362 -373 362 -10 0 -320 -317 -354 -362 -15
-20 -39 -42 -53 -48 -110 -51 -266 -137 -358 -196 -45 -30 -87 -54 -92 -54
-16 0 -89 -70 -86 -83 1 -7 1 -9 -1 -4 -9 14 -22 7 -16 -10 4 -11 3 -14 -6 -9
-13 9 -61 -19 -61 -34 0 -6 12 -3 28 6 l27 16 -25 -21 c-14 -11 -32 -19 -39
-18 -8 1 -20 -7 -26 -18 -5 -11 -44 -51 -84 -90 -95 -89 -130 -128 -158 -174
-13 -20 -23 -30 -23 -23 0 81 446 517 642 629 55 31 108 57 117 58 56 5 132
65 326 258 111 111 210 215 220 230 17 26 19 27 36 11 10 -9 21 -25 24 -35z
m3372 29 c-3 -8 -6 -5 -6 6 -1 11 2 17 5 13 3 -3 4 -12 1 -19z m-5617 -43
c-24 -25 -46 -45 -49 -45 -6 0 37 48 64 72 38 33 29 18 -15 -27z m-860 20 c7
-9 8 -15 2 -15 -5 0 -12 7 -16 15 -3 8 -4 15 -2 15 2 0 9 -7 16 -15z m2421 5
c27 -15 24 -31 -3 -21 -50 18 -179 -42 -211 -99 -11 -19 -30 -48 -43 -63 -29
-35 -30 -51 -4 -77 13 -13 33 -20 60 -20 59 0 63 23 14 67 -27 23 -33 33 -19
29 76 -18 89 -33 71 -85 -9 -27 -18 -37 -45 -44 -73 -18 -126 21 -137 103 -6
42 -12 55 -40 77 -34 26 -43 43 -23 43 6 0 22 -9 36 -20 44 -35 78 -26 142 34
31 30 70 62 86 70 35 18 88 21 116 6z m1451 -18 c25 -15 68 -71 68 -89 0 -4
-12 5 -27 19 -39 36 -85 57 -138 65 -44 6 -53 12 -37 27 11 12 103 -3 134 -22z
m-3922 -12 c0 -5 -11 -10 -25 -10 -14 0 -25 5 -25 10 0 6 11 10 25 10 14 0 25
-4 25 -10z m6243 -7 c-7 -2 -19 -2 -25 0 -7 3 -2 5 12 5 14 0 19 -2 13 -5z
m-4283 -62 c-20 -29 -40 -41 -40 -24 0 10 53 64 58 58 2 -2 -6 -18 -18 -34z
m2139 -31 c2 0 1 -30 -1 -66 -5 -84 -33 -114 -104 -114 -55 0 -58 15 -4 24 68
11 104 71 59 99 -12 7 -26 2 -59 -22 -42 -30 -75 -41 -68 -22 2 6 19 20 38 33
23 15 36 33 38 50 4 30 23 38 67 26 16 -4 32 -8 34 -8z m925 4 c3 -8 2 -12 -4
-9 -6 3 -10 10 -10 16 0 14 7 11 14 -7z m-3364 -3 c0 -6 -4 -13 -10 -16 -5 -3
-10 1 -10 9 0 9 5 16 10 16 6 0 10 -4 10 -9z m1590 -136 c74 -74 142 -148 153
-165 21 -33 14 -63 -8 -33 -7 10 -16 15 -19 12 -4 -3 1 -16 11 -27 12 -14 48
-29 103 -42 112 -28 163 -50 300 -131 145 -85 174 -106 288 -214 161 -152 345
-423 367 -540 6 -34 12 -45 -62 113 -64 135 -242 350 -385 464 -176 140 -368
238 -533 273 -44 9 -90 18 -103 21 -20 4 -23 9 -17 34 14 65 -72 184 -183 254
-36 22 -46 25 -65 15 -30 -16 -98 -70 -119 -94 -22 -26 -23 -12 -2 21 24 35 9
43 -18 8 -75 -95 -100 -147 -96 -197 l3 -42 -65 -11 c-129 -21 -241 -71 -406
-180 -129 -85 -292 -237 -379 -354 -27 -36 -71 -94 -98 -130 -27 -36 -62 -91
-79 -124 -32 -64 -48 -71 -22 -10 35 85 161 263 278 393 180 200 444 375 638
421 45 11 84 23 88 27 4 4 12 27 18 50 13 42 124 191 171 228 14 11 42 36 61
56 19 20 38 37 41 38 3 0 66 -60 139 -134z m2251 118 c13 -16 12 -17 -3 -4
-10 7 -18 15 -18 17 0 8 8 3 21 -13z m-161 -58 l25 -29 -25 16 c-14 8 -27 24
-29 34 -2 11 -2 17 0 14 2 -3 15 -18 29 -35z m-4450 -32 c0 -20 -3 -24 -11
-16 -7 7 -9 19 -6 27 10 24 17 19 17 -11z m-910 -3 c0 -5 -9 -10 -20 -10 -11
0 -20 5 -20 10 0 6 9 10 20 10 11 0 20 -4 20 -10z m1600 0 c0 -5 -4 -10 -10
-10 -5 0 -10 5 -10 10 0 6 5 10 10 10 6 0 10 -4 10 -10z m4718 2 c9 -6 6 -11
-11 -19 -26 -12 -54 -2 -43 16 8 13 35 14 54 3z m-5457 -55 c-11 -18 -28 -43
-38 -55 -10 -12 -34 -44 -53 -72 -58 -85 -74 -99 -39 -35 43 80 143 219 147
206 2 -6 -6 -26 -17 -44z m3854 43 c3 -5 -1 -10 -9 -10 -8 0 -18 5 -21 10 -3
6 1 10 9 10 8 0 18 -4 21 -10z m-2806 -57 c-11 -48 -11 -52 15 -85 27 -36 33
-81 16 -108 -8 -12 -10 -9 -10 11 0 15 -6 32 -14 38 -7 6 -16 29 -20 51 -7 44
-11 47 -40 25 -11 -8 -27 -15 -37 -15 -9 0 -28 -9 -43 -21 -18 -14 -26 -16
-26 -7 0 12 161 169 168 163 1 -1 -3 -25 -9 -52z m2530 -21 c87 -82 109 -127
36 -75 -63 46 -71 49 -47 19 29 -38 28 -48 -5 -30 -34 17 -43 18 -43 3 0 -6
-8 -22 -19 -35 -16 -21 -20 -22 -31 -9 -11 13 -9 20 12 43 29 31 41 68 29 91
-9 18 -23 71 -19 71 2 0 41 -35 87 -78z m1864 34 c3 -8 -1 -17 -9 -20 -9 -4
-14 1 -14 14 0 23 15 27 23 6z m-803 -89 c0 -6 -9 -2 -20 8 -11 10 -20 23 -20
28 0 6 9 2 20 -8 11 -10 20 -23 20 -28z m-605 -7 c3 -5 1 -10 -4 -10 -6 0 -11
5 -11 10 0 6 2 10 4 10 3 0 8 -4 11 -10z m-3520 -10 c-3 -5 -12 -10 -18 -10
-7 0 -6 4 3 10 19 12 23 12 15 0z m491 -5 c-3 -8 -1 -15 5 -15 6 0 7 -5 3 -11
-5 -8 -8 -8 -14 0 -3 7 -14 9 -23 5 -21 -8 -22 0 -1 20 20 20 38 21 30 1z
m3674 -25 c12 -16 18 -30 13 -30 -4 0 -16 14 -25 30 -22 39 -15 39 12 0z
m-2377 -92 c34 -79 108 -194 175 -275 56 -67 142 -133 235 -180 l57 -30 -72
-18 c-100 -24 -203 -31 -223 -15 -12 10 -15 10 -15 -1 0 -8 -43 -57 -96 -110
l-96 -97 -77 92 c-96 114 -94 111 -80 138 l12 21 -28 -21 c-31 -25 -69 -27
-160 -11 -33 5 -80 13 -105 17 -44 8 -44 8 -15 16 50 13 153 76 210 128 58 53
135 178 203 329 19 44 38 79 41 79 4 0 19 -28 34 -62z m1847 37 c20 -24 6 -28
-15 -5 -10 11 -13 20 -8 20 6 0 16 -7 23 -15z m596 -42 c58 -90 172 -332 188
-398 20 -79 27 -167 13 -162 -6 2 -11 11 -13 21 -1 9 -12 25 -23 35 -22 20
-28 41 -35 138 -5 67 -43 163 -127 321 -27 51 -49 95 -49 97 0 14 13 -1 46
-52z m-4347 20 c0 -5 -14 -19 -32 -33 l-32 -25 25 32 c24 31 41 41 39 26z
m-1331 -21 c2 -7 -3 -12 -12 -12 -9 0 -16 7 -16 16 0 17 22 14 28 -4z m6462
-2 c0 -21 -15 -27 -25 -10 -7 12 2 30 16 30 5 0 9 -9 9 -20z m-5698 -12 c-7
-7 -12 -8 -12 -2 0 14 12 26 19 19 2 -3 -1 -11 -7 -17z m929 -68 c31 -31 30
-50 -4 -79 -12 -9 -14 -7 -14 16 0 30 -24 51 -65 60 -48 10 -31 31 25 32 19 1
39 -9 58 -29z m3150 20 c10 -6 19 -17 19 -24 0 -12 -6 -12 -29 -3 -44 16 -81
-3 -81 -44 0 -20 -4 -29 -12 -26 -18 6 -13 65 8 88 19 21 64 25 95 9z m-772
-85 c16 -8 31 -12 34 -9 3 3 27 -15 54 -39 157 -145 167 -157 151 -157 -9 0
-34 11 -54 25 -20 14 -32 25 -25 25 25 0 8 20 -33 38 -45 20 -67 42 -44 42 7
1 2 10 -11 21 -17 14 -26 16 -31 8 -9 -14 -36 -1 -69 35 -27 29 -15 34 28 11z
m629 -128 c33 -15 86 -32 119 -38 131 -23 171 -32 242 -56 132 -43 135 -55 6
-23 -44 11 -90 20 -102 20 -13 0 -44 5 -70 11 -231 56 -251 65 -288 138 -33
67 -32 76 3 20 23 -35 42 -51 90 -72z m1187 15 c-6 -15 -8 -15 -15 3 -5 11 -9
31 -9 45 l0 25 15 -28 c9 -16 12 -36 9 -45z m-5995 48 c0 -5 -7 -10 -15 -10
-8 0 -15 5 -15 10 0 6 7 10 15 10 8 0 15 -4 15 -10z m1200 0 c0 -5 -4 -10 -10
-10 -5 0 -10 5 -10 10 0 6 5 10 10 10 6 0 10 -4 10 -10z m1240 7 c0 -2 -12
-14 -27 -28 l-28 -24 24 28 c23 25 31 32 31 24z m-540 -67 c-19 -36 -87 -60
-220 -80 -68 -10 -216 -46 -250 -61 l-25 -10 21 21 c27 28 143 67 235 80 79
11 206 47 215 61 3 5 12 9 20 9 12 0 12 -4 4 -20z m-1130 -47 c0 -34 -23 -140
-32 -148 -8 -7 -9 -3 -4 15 4 14 10 51 13 83 3 31 10 57 14 57 5 0 9 -3 9 -7z
m5583 -43 c3 -11 2 -18 -3 -15 -4 3 -10 14 -13 25 -3 11 -2 18 3 15 4 -3 10
-14 13 -25z m-5624 -7 c0 -5 -4 -17 -9 -28 -8 -18 -9 -17 -9 8 -1 15 4 27 9
27 6 0 10 -3 9 -7z m3775 -52 c35 -35 47 -54 42 -67 -6 -15 -9 -14 -29 7 -13
13 -22 28 -19 32 6 12 -48 58 -59 52 -12 -8 -31 4 -24 16 13 20 43 7 89 -40z
m1886 -26 c1 -29 22 -85 31 -80 5 4 9 3 8 -2 -1 -4 3 -21 10 -38 28 -68 77
-272 101 -420 14 -89 17 -107 25 -150 l6 -30 -38 41 c-21 22 -45 43 -54 46 -9
4 -37 31 -64 62 -37 44 -45 59 -36 70 16 19 80 -4 97 -35 12 -22 13 -22 14 -4
0 11 -6 54 -14 95 -8 41 -17 101 -20 133 -3 31 -7 61 -10 66 -3 4 -8 27 -11
50 -3 23 -11 52 -20 64 -8 12 -24 53 -35 91 -12 37 -24 76 -27 85 -3 9 4 5 16
-9 11 -14 21 -29 21 -35z m-314 -46 c23 -120 27 -159 17 -159 -11 0 -30 93
-39 190 -9 88 3 72 22 -31z m-1097 35 c12 -11 -54 -2 -91 13 -72 27 -65 34 13
12 41 -12 76 -23 78 -25z m-4274 -25 c-13 -59 -25 -88 -25 -56 0 31 22 117 30
117 4 0 2 -27 -5 -61z m975 39 c-36 -10 -80 -26 -99 -34 -18 -8 -36 -12 -39
-10 -8 8 81 46 131 55 72 15 75 10 7 -11z m520 -1 c0 -2 -10 -12 -22 -23 l-23
-19 19 23 c18 21 26 27 26 19z m519 -66 c-27 -140 1 -236 110 -369 94 -114
222 -341 244 -433 6 -24 4 -25 -26 -24 -30 1 -36 9 -102 124 -78 136 -161 234
-272 321 -42 33 -75 67 -82 86 -6 17 -40 56 -76 88 -36 31 -65 61 -65 65 0 5
18 11 41 15 34 5 56 22 137 100 53 52 98 93 100 91 2 -2 -2 -30 -9 -64z m1256
29 c58 -74 110 -120 161 -141 30 -13 54 -26 54 -29 0 -12 -45 -48 -68 -55 -27
-8 -74 -79 -74 -112 0 -13 -5 -23 -11 -23 -15 0 -193 -177 -250 -250 -28 -36
-57 -71 -66 -77 -8 -7 -27 -34 -43 -60 -22 -38 -28 -43 -28 -25 0 30 -13 21
-35 -24 -28 -60 -29 -29 0 45 31 83 95 190 189 320 132 183 165 269 147 377
-7 35 -14 71 -18 81 -9 22 15 7 42 -27z m1970 -30 c16 -16 24 -30 19 -30 -6 0
-23 14 -39 30 -16 17 -24 30 -19 30 6 0 23 -13 39 -30z m-1312 -59 c28 -48 12
-37 -25 17 -24 34 -34 42 -36 30 -2 -10 -8 -18 -13 -18 -13 0 -11 14 3 28 14
14 42 -9 71 -57z m-2539 24 c-9 -14 -18 -25 -21 -25 -5 0 5 18 20 38 17 22 18
13 1 -13z m-2124 -10 c0 -8 -4 -15 -9 -15 -13 0 -22 16 -14 24 11 11 23 6 23
-9z m6730 -5 c0 -5 -4 -10 -10 -10 -5 0 -10 5 -10 10 0 6 5 10 10 10 6 0 10
-4 10 -10z m-5240 -54 c0 -5 -7 -3 -15 4 -8 7 -12 17 -9 22 7 10 24 -9 24 -26z
m599 12 c-19 -37 -82 -138 -85 -138 -7 0 21 56 54 108 33 52 53 71 31 30z
m2541 -10 c0 -6 -7 -5 -15 2 -8 7 -15 17 -15 22 0 6 7 5 15 -2 8 -7 15 -17 15
-22z m648 -10 c4 -36 62 -85 118 -100 24 -7 43 -17 41 -23 -13 -39 -129 14
-152 69 -8 18 -21 38 -29 46 -22 17 -20 42 2 38 10 -2 18 -14 20 -30z m-4893
-8 c3 -5 1 -10 -4 -10 -6 0 -11 5 -11 10 0 6 2 10 4 10 3 0 8 -4 11 -10z
m4332 -38 c13 -32 13 -33 -6 -27 -16 5 -19 2 -16 -20 3 -30 -9 -22 -20 13 -4
15 -2 24 9 28 28 11 17 26 -14 19 -30 -6 -43 8 -17 19 28 11 51 0 64 -32z
m-4471 -14 c-2 -13 -8 -54 -14 -93 -6 -38 -16 -106 -22 -150 -6 -44 -14 -89
-17 -100 -3 -12 9 -4 32 23 38 43 64 57 46 25 -5 -10 -33 -43 -63 -74 -29 -30
-70 -75 -91 -100 l-38 -44 20 51 c19 50 68 219 111 379 11 44 23 86 25 93 7
20 14 14 11 -10z m1163 -16 c-11 -33 -56 -57 -118 -64 -52 -5 -41 16 12 24 56
8 93 29 102 58 4 12 9 20 11 17 2 -2 -1 -18 -7 -35z m4313 8 c12 -11 19 -22
16 -25 -2 -3 -15 6 -28 20 -28 30 -18 34 12 5z m-3804 -159 c-20 -41 -24 -83
-14 -136 3 -16 3 -22 0 -12 -3 9 -10 15 -15 11 -21 -12 -18 27 6 105 14 45 30
79 34 76 5 -2 0 -22 -11 -44z m-1815 -41 c-7 -28 -13 -25 -13 6 0 14 4 23 9
20 5 -3 7 -15 4 -26z m4316 -72 c-12 -23 -34 -61 -49 -83 -37 -54 -90 -161
-90 -180 0 -9 -4 -14 -9 -11 -13 8 -116 -30 -185 -68 -128 -72 -239 -174 -365
-335 l-43 -55 7 40 c11 57 68 162 130 237 66 80 149 148 257 211 150 87 218
138 291 217 40 42 73 76 75 74 2 -2 -7 -23 -19 -47z m1985 21 c-6 -11 -24 -2
-24 11 0 5 7 7 15 4 8 -4 12 -10 9 -15z m-3855 -222 c47 -30 111 -67 141 -83
97 -52 257 -221 298 -314 17 -38 62 -193 58 -197 -1 -1 -25 32 -53 75 -151
232 -282 341 -525 440 -17 7 -34 27 -46 56 -11 24 -38 68 -60 98 -22 29 -50
78 -62 108 l-22 55 92 -93 c59 -59 123 -111 179 -145z m-994 193 c-19 -21 -35
-26 -35 -12 0 5 10 14 23 20 31 15 32 14 12 -8z m3726 -67 c13 -16 12 -17 -3
-4 -17 13 -22 21 -14 21 2 0 10 -8 17 -17z m879 -39 c41 -31 87 -63 103 -72
15 -9 27 -20 27 -25 0 -13 -70 30 -145 90 -85 67 -80 63 -69 63 5 0 43 -25 84
-56z m-1070 -36 c0 -16 -23 -7 -51 21 -16 16 -29 37 -29 47 0 14 10 9 40 -21
22 -21 40 -43 40 -47z m-4520 42 c-28 -21 -129 -78 -118 -65 9 10 131 85 138
85 3 0 -6 -9 -20 -20z m1160 13 c0 -11 -283 -283 -289 -277 -3 3 278 282 287
284 1 0 2 -3 2 -7z m3980 -53 c-9 -18 -40 -40 -55 -40 -5 0 57 59 63 60 1 0
-2 -9 -8 -20z m-6705 -19 c-3 -12 -13 -21 -21 -21 -18 0 -18 9 3 32 20 22 27
17 18 -11z m8739 -43 c26 -32 43 -58 37 -58 -5 0 -13 5 -16 10 -4 6 -24 22
-46 36 l-39 24 -58 -45 c-87 -69 -93 -54 -11 28 41 40 76 71 79 68 3 -3 27
-32 54 -63z m-7189 -287 c110 -112 201 -206 203 -210 1 -4 -10 -14 -26 -23
-19 -12 -32 -14 -45 -7 -10 6 -26 7 -38 4 -11 -4 -82 -66 -158 -138 -75 -73
-170 -162 -211 -198 l-73 -65 -66 60 c-36 34 -125 121 -198 194 -72 72 -136
132 -142 132 -6 0 -11 5 -11 11 0 8 4 8 14 0 11 -9 15 -9 18 1 2 6 60 -44 129
-113 68 -69 156 -147 196 -174 l72 -48 28 18 c39 26 152 123 263 229 52 50
103 96 113 101 16 9 0 29 -125 155 -79 80 -175 173 -214 207 l-71 62 -53 -50
c-54 -51 -107 -85 -124 -81 -10 3 -21 -7 -191 -171 -117 -113 -154 -136 -186
-116 -11 7 54 76 266 286 l280 278 75 -70 c41 -38 164 -162 275 -274z m540
301 c-6 -6 -55 30 -55 40 0 5 13 -1 29 -14 15 -13 27 -24 26 -26z m4055 -14
c19 -24 57 -68 84 -98 28 -30 9 -15 -42 35 -51 49 -92 93 -92 97 0 18 19 5 50
-34z m1642 -239 l283 -280 -56 2 c-66 3 -74 -2 -184 -110 -100 -98 -327 -301
-338 -301 -4 0 -11 8 -15 19 -4 10 -32 40 -62 67 -30 26 -102 93 -160 149
-146 141 -180 166 -238 171 -26 3 -51 9 -55 13 -5 5 91 108 219 235 126 124
245 246 264 270 19 25 40 45 47 46 7 0 140 -126 295 -281z m-7782 247 c0 -3
-4 -8 -10 -11 -5 -3 -10 -1 -10 4 0 6 5 11 10 11 6 0 10 -2 10 -4z m2495 -36
c-16 -16 -31 -27 -34 -24 -5 5 48 54 58 54 3 0 -8 -13 -24 -30z m-2375 -34 c0
-8 -101 -68 -106 -64 -9 9 66 68 86 68 11 0 20 -2 20 -4z m8550 -21 c0 -8 -4
-15 -10 -15 -5 0 -10 7 -10 15 0 8 5 15 10 15 6 0 10 -7 10 -15z m81 -8 c9
-12 -82 -100 -93 -89 -5 5 9 27 30 50 28 30 35 45 28 52 -8 8 -5 9 9 4 11 -4
23 -12 26 -17z m-6329 -8 c-9 -11 -26 -25 -37 -31 -14 -7 -11 -1 9 21 33 34
56 43 28 10z m3458 -45 c0 -8 -4 -12 -10 -9 -5 3 -10 13 -10 21 0 8 5 12 10 9
6 -3 10 -13 10 -21z m431 -56 c15 -28 5 -21 -21 15 -15 20 -17 27 -6 18 9 -8
22 -23 27 -33z m-3937 -45 c-28 -31 -57 -59 -64 -61 -8 -3 12 25 44 62 32 36
61 64 64 61 3 -3 -17 -31 -44 -62z m876 -57 c44 -47 92 -70 211 -101 35 -9 97
-33 139 -53 113 -56 227 -180 287 -316 7 -15 13 -29 13 -31 0 -1 -12 -2 -27
-1 -25 1 -28 -2 -26 -28 2 -25 -3 -20 -35 34 -97 165 -285 290 -437 290 -46 0
-56 4 -74 26 -12 15 -21 32 -21 39 0 6 -18 37 -40 68 -51 71 -70 116 -70 164
l0 38 19 -42 c11 -23 38 -62 61 -87z m2255 62 c-9 -29 -46 -98 -83 -153 l-67
-100 -80 -20 c-83 -22 -135 -45 -220 -100 -73 -47 -116 -90 -174 -174 -51 -74
-69 -91 -31 -29 22 37 27 74 8 62 -8 -5 -9 -2 -5 10 4 10 1 27 -7 38 -13 18
-12 25 13 65 54 86 202 183 356 233 138 45 196 85 263 184 18 26 36 46 38 43
3 -3 -2 -29 -11 -59z m893 -76 c-13 -6 -37 18 -55 52 -15 30 -14 29 24 -9 21
-22 35 -42 31 -43z m-3927 45 c-10 -9 -11 -8 -5 6 3 10 9 15 12 12 3 -3 0 -11
-7 -18z m3887 -43 c-9 -8 -58 41 -58 58 0 7 14 -2 32 -19 18 -18 29 -35 26
-39z m-3722 27 c-8 -13 -36 -15 -36 -3 0 4 5 13 12 20 14 14 34 0 24 -17z
m-610 -33 c80 -67 744 -710 744 -721 0 -12 -42 27 -345 319 -126 122 -264 252
-307 288 -93 81 -175 182 -92 114z m434 -4 c0 -2 -7 -4 -15 -4 -8 0 -15 4 -15
10 0 5 7 7 15 4 8 -4 15 -8 15 -10z m4265 -3 c6 -11 -29 -34 -38 -24 -7 6
-181 -160 -346 -330 -63 -65 -151 -148 -195 -184 -45 -37 -128 -112 -185 -167
-102 -99 -103 -99 -40 -27 35 41 100 106 144 145 73 65 374 363 504 501 30 32
68 62 83 67 15 6 28 14 28 19 0 12 37 12 45 0z m-825 -11 c0 -5 -11 -10 -25
-10 -14 0 -25 5 -25 10 0 6 11 10 25 10 14 0 25 -4 25 -10z m-4610 -20 c26
-26 27 -44 1 -30 -36 19 -77 12 -110 -19 -43 -41 -42 -83 3 -126 37 -34 35
-54 -7 -76 -22 -12 -22 -12 1 13 l23 26 -33 25 c-30 24 -33 32 -39 94 -3 37
-7 75 -10 83 -4 16 35 26 109 29 30 1 48 -5 62 -19z m1206 -75 c60 -52 115
-95 122 -95 6 0 12 -7 12 -16 0 -13 -5 -12 -29 5 -36 26 -221 190 -221 196 0
10 11 2 116 -90z m3767 53 c-21 -39 -210 -228 -226 -228 -7 0 24 33 69 74 44
41 99 99 123 130 49 63 61 71 34 24z m2388 -111 c-46 -48 -111 -87 -111 -67 0
5 4 10 9 12 5 2 40 32 77 67 79 75 100 65 25 -12z m-7375 -1 c32 -24 9 -29
-33 -7 -35 18 -36 20 -12 21 14 0 34 -6 45 -14z m4566 -81 c-3 -17 -8 -23 -14
-17 -11 11 -1 55 11 47 5 -2 6 -16 3 -30z m2948 -25 c0 -16 -135 -129 -143
-121 -5 5 12 31 37 57 25 27 48 56 51 65 4 11 13 15 30 11 14 -2 25 -8 25 -12z
m-2884 -100 c-57 -182 -243 -530 -347 -650 l-30 -35 29 45 c114 174 151 236
212 353 67 131 84 172 135 320 15 43 29 76 31 75 2 -2 -12 -51 -30 -108z
m-2861 -10 c37 -97 93 -204 160 -305 67 -102 296 -339 410 -424 98 -73 324
-184 405 -200 84 -16 110 -27 110 -46 0 -41 -167 -2 -317 74 -252 128 -487
344 -659 605 -57 86 -164 335 -164 380 0 20 0 20 15 0 8 -10 26 -48 40 -84z
m-1735 76 c0 -24 -36 -42 -75 -37 -13 2 47 50 63 51 6 0 12 -6 12 -14z m4341
-82 c-59 -181 -207 -465 -241 -461 -8 1 -15 -6 -15 -15 0 -9 -4 -20 -9 -25 -5
-4 -6 -3 -2 5 4 6 5 12 1 12 -3 0 -9 -8 -13 -18 -11 -29 -220 -216 -316 -283
-125 -87 -297 -167 -413 -190 -95 -20 -113 -19 -113 5 0 9 39 23 111 41 181
45 387 156 556 300 121 104 264 269 309 357 13 26 37 68 53 93 16 24 45 90 66
145 41 109 57 130 26 34z m1264 -54 c3 -6 -4 -10 -17 -10 -17 0 -24 6 -24 19
0 15 4 17 18 10 9 -5 20 -14 23 -19z m-5130 10 c3 -5 1 -10 -4 -10 -6 0 -11 5
-11 10 0 6 2 10 4 10 3 0 8 -4 11 -10z m3962 -62 c-3 -8 -6 -5 -6 6 -1 11 2
17 5 13 3 -3 4 -12 1 -19z m-65 -160 c-7 -7 -12 -8 -12 -2 0 14 12 26 19 19 2
-3 -1 -11 -7 -17z m-3982 -50 c0 -5 -9 -3 -20 4 -11 7 -20 16 -20 20 0 5 9 3
20 -4 11 -7 20 -16 20 -20z m6990 8 c0 -2 -25 -30 -55 -61 -59 -60 -67 -62
-34 -9 27 44 89 93 89 70z m-6887 -102 c26 -35 16 -30 -24 12 -18 20 -25 31
-14 24 11 -6 28 -23 38 -36z m5187 41 c0 -9 -72 -76 -77 -71 -6 5 57 76 68 76
5 0 9 -2 9 -5z m-3962 -87 c112 -183 231 -308 472 -501 96 -77 207 -168 245
-203 39 -34 108 -94 155 -134 47 -40 114 -100 150 -134 36 -34 115 -105 176
-158 l110 -96 35 27 c19 14 75 67 125 116 109 108 450 402 531 458 32 22 78
56 103 75 66 52 81 59 35 18 -22 -20 -69 -58 -105 -83 -134 -96 -387 -318
-577 -506 l-141 -140 -108 99 c-59 54 -150 140 -203 190 -92 87 -310 275 -416
359 -255 202 -376 310 -452 402 -75 92 -136 183 -177 261 -30 57 -10 34 42
-50z m-863 4 c-13 -13 -26 17 -19 44 l8 29 8 -34 c5 -18 7 -36 3 -39z m3435
34 c0 -3 -4 -8 -10 -11 -5 -3 -10 -1 -10 4 0 6 5 11 10 11 6 0 10 -2 10 -4z
m978 -24 c2 -7 -3 -12 -12 -12 -9 0 -16 7 -16 16 0 17 22 14 28 -4z m171 2
c-15 -18 -84 -64 -96 -64 -6 0 97 77 106 79 2 1 -3 -6 -10 -15z m1969 -14
c-16 -26 -66 -46 -79 -33 -7 7 -2 11 16 11 15 0 37 9 48 21 27 26 31 27 15 1z
m-3206 -87 c-41 -60 -121 -153 -122 -141 0 3 21 30 46 60 25 29 57 72 72 95
15 24 31 43 35 43 4 0 -10 -26 -31 -57z m-3372 0 c0 -8 -38 17 -51 33 -9 11
-2 9 19 -6 17 -13 32 -25 32 -27z m4499 24 c-2 -1 -13 -9 -24 -17 -19 -14 -19
-14 -6 3 7 9 18 17 24 17 6 0 8 -1 6 -3z m-2083 -96 c-10 -4 -76 63 -76 77 0
5 19 -10 43 -32 24 -23 39 -43 33 -45z m2024 56 c0 -2 -15 -16 -32 -33 l-33
-29 29 33 c28 30 36 37 36 29z m-3331 -56 c-7 -2 -18 4 -26 15 -22 30 -15 39
13 13 16 -15 21 -25 13 -28z m906 29 c-3 -5 -12 -10 -18 -10 -7 0 -6 4 3 10
19 12 23 12 15 0z m-2191 -100 c5 -20 3 -19 -8 5 -7 17 -16 41 -20 55 -5 20
-3 19 8 -5 7 -16 16 -41 20 -55z m366 50 c0 -5 -6 -10 -14 -10 -8 0 -18 5 -21
10 -3 6 3 10 14 10 12 0 21 -4 21 -10z m4270 6 c0 -2 -8 -10 -17 -17 -16 -13
-17 -12 -4 4 13 16 21 21 21 13z m-3245 -94 c-3 -3 1 -12 7 -21 7 -9 2 -7 -11
4 -13 11 -37 40 -54 65 l-30 45 46 -44 c26 -25 44 -47 42 -49z m1092 -14 c-35
-46 -69 -98 -76 -115 -20 -48 -31 -40 -31 21 0 44 5 60 26 86 24 27 117 90
136 90 4 0 -21 -37 -55 -82z m-179 -23 c12 -28 11 -29 -4 -10 -8 11 -22 34
-31 50 -15 30 -15 30 4 10 11 -11 25 -33 31 -50z m1077 24 c-22 -22 -53 -50
-70 -61 -16 -11 -1 8 35 41 75 70 93 80 35 20z m100 -25 c-89 -83 -155 -137
-155 -127 0 4 17 21 38 36 20 15 64 54 97 87 33 32 65 59 70 59 6 0 -17 -25
-50 -55z m-2040 6 c10 -11 16 -20 13 -20 -3 0 -13 9 -23 20 -10 11 -16 20 -13
20 3 0 13 -9 23 -20z m-1388 -77 c-8 -8 -27 26 -33 58 -5 33 -5 33 15 -10 12
-24 20 -46 18 -48z m133 -27 c0 -6 -7 -2 -15 8 -8 11 -15 25 -15 30 0 6 7 2
15 -8 8 -11 15 -25 15 -30z m202 -18 c27 -29 58 -65 69 -80 19 -26 19 -27 2
-21 -34 13 -108 64 -108 74 0 6 -11 19 -25 30 -14 12 -19 18 -12 14 8 -4 12 1
12 14 0 12 3 21 7 21 3 0 28 -24 55 -52z m2857 26 c-7 -9 -51 -36 -98 -60 -48
-24 -115 -60 -151 -80 -50 -28 -60 -32 -44 -15 16 17 266 157 303 170 2 0 -2
-6 -10 -15z m1174 -16 c-11 -13 -19 -27 -17 -33 2 -5 -13 -21 -32 -35 -19 -14
-50 -38 -67 -53 -90 -80 -105 -83 -31 -6 45 46 90 93 100 105 17 19 52 43 63
44 3 0 -5 -10 -16 -22z m-3618 -28 c3 -5 1 -10 -4 -10 -6 0 -11 5 -11 10 0 6
2 10 4 10 3 0 8 -4 11 -10z m-710 -40 c141 -23 75 -26 -90 -4 -82 11 -159 14
-245 11 -132 -6 -142 -3 -45 13 78 12 241 3 380 -20z m3215 26 c0 -2 -12 -12
-27 -21 l-28 -18 19 21 c17 20 36 29 36 18z m-1444 -123 c-5 -6 -100 31 -141
53 -23 13 -50 33 -61 45 -11 12 24 -2 93 -38 61 -32 110 -59 109 -60z m2909
92 c-38 -7 -99 -22 -135 -34 -78 -25 -96 -26 -55 -4 49 27 146 52 205 51 l55
0 -70 -13z m-275 -27 c-36 -10 -89 -27 -117 -37 -29 -10 -53 -15 -53 -10 0 5
39 20 88 35 48 14 92 27 97 29 6 2 19 3 30 3 11 0 -9 -9 -45 -20z m-4183 -13
c43 -14 85 -29 93 -35 19 -13 4 -13 -20 0 -10 5 -55 21 -101 34 -46 14 -76 25
-67 25 9 1 52 -10 95 -24z m741 -19 c28 -16 50 -31 48 -33 -6 -6 -103 45 -112
58 -8 14 -3 12 64 -25z m2707 -2 c-27 -13 -57 -23 -65 -23 -19 1 80 48 100 48
8 0 -7 -11 -35 -25z m-3902 -11 c-7 -2 -21 -2 -30 0 -10 3 -4 5 12 5 17 0 24
-2 18 -5z m446 -68 c26 -18 64 -55 86 -82 65 -79 71 -92 14 -32 -67 70 -141
128 -197 153 -23 10 -42 23 -42 27 0 13 89 -29 139 -66z m4241 61 c0 -2 -29
-22 -63 -45 -35 -23 -75 -53 -88 -67 -13 -14 -51 -49 -84 -78 l-60 -51 33 42
c56 72 262 228 262 199z m350 -6 c-147 -13 -204 -34 -341 -125 -125 -83 -164
-120 -209 -202 -13 -24 -26 -41 -28 -38 -7 7 67 133 101 172 60 69 255 177
347 193 25 4 81 7 125 7 l80 0 -75 -7z m-5177 -7 c-7 -2 -19 -2 -25 0 -7 3 -2
5 12 5 14 0 19 -2 13 -5z m732 -11 c-3 -3 -11 0 -18 7 -9 10 -8 11 6 5 10 -3
15 -9 12 -12z m-390 -12 c91 -23 141 -50 215 -117 55 -49 110 -118 110 -136 0
-6 -11 4 -24 21 -41 56 -138 134 -210 168 -64 31 -130 49 -266 72 l-55 9 76 2
c47 1 105 -7 154 -19z m1842 14 c-3 -3 -12 -4 -19 -1 -8 3 -5 6 6 6 11 1 17
-2 13 -5z m-1352 -14 c4 -6 25 -20 49 -30 25 -13 48 -33 60 -54 21 -40 59 -70
101 -80 37 -9 45 -21 45 -68 0 -25 7 -45 20 -58 11 -11 16 -20 12 -20 -4 0
-28 21 -52 46 -25 25 -59 54 -77 65 -17 11 -45 42 -62 69 -16 26 -50 62 -75
80 -25 17 -46 37 -46 45 0 17 16 20 25 5z m1435 0 c0 -5 -14 -7 -32 -3 -46 8
-48 13 -5 13 21 0 37 -4 37 -10z m-1202 -35 c-3 -3 -9 2 -12 12 -6 14 -5 15 5
6 7 -7 10 -15 7 -18z m2060 19 c32 -9 27 -24 -7 -24 -35 0 -61 9 -61 21 0 10
34 12 68 3z m-98 -14 c0 -5 -9 -14 -21 -20 -19 -11 -20 -10 -9 9 11 22 30 29
30 11z m-780 -10 c0 -13 -11 -13 -30 0 -12 8 -11 10 8 10 12 0 22 -4 22 -10z
m128 -1 c17 -6 33 -17 36 -24 4 -10 -7 -8 -37 7 -23 12 -44 23 -46 25 -9 7 17
2 47 -8z m-1242 -44 c10 -8 14 -15 8 -15 -5 0 -19 7 -30 15 -10 8 -14 15 -8
15 5 0 19 -7 30 -15z m1674 -47 c-14 -11 -50 -43 -80 -71 -91 -85 -86 -83
-106 -45 -9 18 -28 46 -43 62 l-26 29 46 -26 c43 -24 47 -25 62 -9 16 15 17
15 17 -1 0 -14 17 -5 73 36 39 30 74 52 77 50 3 -3 -6 -14 -20 -25z m-2986
-88 c7 -24 6 -24 -8 -6 -9 11 -16 27 -16 35 0 21 16 2 24 -29z m4505 37 c-2
-1 -13 -9 -24 -17 -19 -14 -19 -14 -6 3 7 9 18 17 24 17 6 0 8 -1 6 -3z m-65
-52 c-4 -8 -11 -15 -16 -15 -6 0 -5 6 2 15 7 8 14 15 16 15 2 0 1 -7 -2 -15z
m-3917 -25 c55 -27 82 -54 69 -68 -3 -2 -17 5 -33 16 -15 10 -48 29 -72 42
-37 19 -46 20 -55 8 -17 -21 -58 -44 -89 -50 -23 -4 -25 -3 -15 9 14 18 108
73 124 73 6 0 38 -14 71 -30z m4725 18 c36 -12 34 -13 -50 -13 -119 0 -156 -9
-197 -51 -19 -19 -35 -29 -35 -22 1 15 36 57 66 78 29 20 167 25 216 8z m-892
-87 c-6 -12 -16 -19 -21 -15 -6 4 -4 13 7 25 21 24 29 18 14 -10z m798 -39 c2
-7 -6 -12 -20 -12 -13 0 -29 -5 -36 -12 -9 -9 -15 -9 -24 0 -15 15 -2 29 32
35 33 6 43 3 48 -11z m-828 -3 c0 -19 -61 -99 -76 -99 -8 0 -17 -7 -20 -15 -4
-8 -11 -15 -16 -15 -6 0 -24 -11 -40 -25 -38 -32 -50 -24 -42 28 9 69 13 74
32 45 l17 -26 39 29 c21 15 42 26 46 24 4 -2 16 11 26 30 18 34 34 45 34 24z
m-5220 -68 c115 -85 168 -129 248 -206 68 -65 162 -175 162 -190 0 -8 53 -79
63 -83 4 -2 7 -8 7 -13 0 -6 14 -27 30 -48 18 -22 45 -81 65 -139 39 -116 43
-138 50 -247 l5 -80 -14 90 c-24 170 -76 295 -199 480 -102 153 -155 212 -297
325 -151 120 -214 172 -220 178 -13 13 32 -16 100 -67z m280 -42 c15 -28 5
-23 -15 7 -9 15 -12 23 -6 20 6 -4 16 -16 21 -27z m2083 -16 c30 -9 37 -9 37
3 0 15 16 19 24 6 2 -4 7 -24 11 -45 6 -28 4 -37 -7 -37 -24 0 -118 70 -118
88 0 10 3 13 8 7 4 -6 24 -16 45 -22z m3977 -17 c-18 -23 -80 -40 -93 -27 -8
8 -3 11 19 11 16 0 40 7 54 14 33 18 35 19 20 2z m-5969 -103 c13 -16 12 -17
-3 -4 -10 7 -18 15 -18 17 0 8 8 3 21 -13z m894 7 c3 -5 1 -10 -4 -10 -6 0
-11 5 -11 10 0 6 2 10 4 10 3 0 8 -4 11 -10z m4782 4 c-3 -3 -12 -4 -19 -1 -8
3 -5 6 6 6 11 1 17 -2 13 -5z m60 -69 c74 0 113 -3 100 -8 -36 -13 -178 -9
-234 8 -28 8 -62 24 -75 35 -17 14 -8 12 32 -8 51 -25 65 -27 177 -27z m-5702
4 c9 -17 15 -33 13 -35 -3 -2 -12 12 -21 31 -21 43 -13 47 8 4z m1616 14 c13
-15 12 -15 -8 -4 -24 12 -29 21 -14 21 5 0 15 -7 22 -17z m-1552 -126 c23 -41
25 -47 13 -47 -6 0 -32 48 -50 95 -9 22 17 -12 37 -48z m1872 -4 c13 -16 12
-17 -3 -4 -17 13 -22 21 -14 21 2 0 10 -8 17 -17z m-1841 -63 c0 -5 -4 -10
-10 -10 -5 0 -10 5 -10 10 0 6 5 10 10 10 6 0 10 -4 10 -10z m1014 -185 c42
-21 63 -25 144 -25 l95 0 -26 -24 c-14 -13 -28 -39 -31 -57 -3 -19 -7 -160 -9
-313 l-5 -279 115 6 c94 4 114 3 109 -8 -5 -14 -19 -68 -30 -117 l-6 -28 -210
0 -210 0 35 46 c19 25 38 58 43 72 4 15 7 165 7 333 l0 307 -31 43 c-35 50
-47 69 -42 69 2 0 25 -11 52 -25z m3966 -27 c-20 -32 -50 -92 -64 -131 -5 -17
-13 -18 -66 -12 -33 4 -101 4 -152 0 l-93 -7 1 -62 c1 -33 2 -72 3 -85 l1 -24
109 5 109 5 -8 -31 c-5 -17 -11 -47 -14 -67 l-7 -37 -100 -7 -100 -7 3 -102 3
-101 153 -3 c93 -2 165 1 184 7 17 6 33 9 35 7 2 -2 -5 -19 -17 -38 -11 -19
-21 -53 -22 -76 l-1 -42 -251 0 c-138 0 -262 -3 -276 -6 -22 -5 -23 -4 -9 8
36 30 39 54 45 392 6 370 6 372 -54 399 -22 10 24 13 258 17 187 3 294 9 310
17 40 19 43 15 20 -19z m-3243 -1 l252 2 -25 -36 c-13 -20 -24 -46 -24 -59 0
-36 -30 -45 -166 -49 l-126 -3 -5 -83 c-2 -46 -6 -86 -9 -90 -2 -4 50 -10 116
-14 l119 -8 -6 -46 c-3 -25 -9 -50 -13 -54 -4 -5 -50 -12 -101 -15 l-94 -7 -9
-98 c-5 -53 -6 -101 -2 -105 4 -4 81 -7 170 -7 l163 0 -22 -50 c-13 -27 -25
-58 -28 -67 -8 -22 -20 -23 -298 -23 l-206 0 22 23 c13 12 25 37 29 55 4 25
10 543 7 644 -1 13 -18 41 -38 64 l-37 41 40 -9 c21 -4 152 -7 291 -6z m790
-17 c-14 -36 -12 -43 77 -290 80 -222 165 -395 226 -463 l45 -50 -79 6 c-43 4
-104 7 -135 7 l-56 0 -1 58 c0 38 -8 73 -24 105 l-23 48 -152 -3 -152 -3 -28
-51 c-23 -43 -27 -60 -23 -103 l5 -51 -82 0 c-45 0 -98 -3 -116 -6 l-34 -7 31
34 c36 38 58 79 84 153 26 75 134 325 180 416 22 44 40 86 40 95 0 8 -16 35
-35 61 -19 25 -35 50 -35 55 0 5 43 6 103 3 56 -3 120 -1 142 4 22 6 43 10 47
11 3 1 1 -12 -5 -29z m819 14 c45 -15 233 -131 234 -145 0 -3 -23 -16 -51 -30
-28 -13 -58 -34 -66 -46 l-15 -23 -22 33 c-35 51 -112 78 -216 74 -103 -3
-145 -21 -216 -92 -44 -44 -54 -60 -64 -109 -13 -64 -4 -119 30 -185 60 -116
233 -175 358 -121 53 23 99 67 127 119 14 27 13 29 -8 35 -12 3 -79 6 -148 6
-69 0 -128 3 -131 6 -4 3 0 21 8 39 8 19 14 45 14 57 l0 23 223 -3 224 -3 -8
-52 c-17 -127 -57 -203 -148 -290 -51 -48 -81 -67 -131 -85 -203 -70 -441 29
-547 229 -26 50 -28 62 -28 169 0 109 2 118 30 170 58 107 167 192 286 224 74
20 204 20 265 0z m507 -3 c-13 -25 -16 -510 -4 -552 15 -50 78 -105 129 -114
52 -8 134 25 164 68 21 30 22 40 22 289 -1 249 -1 260 -22 288 -12 16 -22 31
-22 34 0 2 16 0 36 -4 20 -5 69 -6 110 -3 60 5 74 3 74 -9 0 -8 -4 -18 -10
-24 -5 -5 -10 -149 -12 -348 l-3 -338 -30 -24 c-19 -16 -38 -23 -51 -19 -13 3
-51 -9 -90 -27 -60 -27 -81 -31 -154 -31 -65 -1 -96 4 -131 20 -94 42 -154
120 -177 230 -8 34 -9 129 -5 280 l6 228 -27 31 c-14 18 -26 33 -26 35 0 2 52
5 116 5 103 1 114 0 107 -15z m2754 -137 c-3 -3 -12 -4 -19 -1 -8 3 -5 6 6 6
11 1 17 -2 13 -5z m-1414 -107 c18 -8 45 -33 61 -55 59 -86 41 -200 -38 -247
-139 -81 -308 40 -267 192 25 94 149 149 244 110z m356 -2 c1 -2 -1 -16 -6
-32 -9 -27 -13 -28 -77 -31 -56 -2 -67 -6 -62 -18 3 -9 6 -22 6 -30 0 -8 6
-14 13 -14 6 0 29 -5 50 -11 33 -9 38 -14 35 -37 -3 -28 -8 -30 -73 -21 l-30
4 3 -65 2 -66 -38 1 -37 0 0 165 0 165 105 -3 c58 -3 107 -6 109 -7z m-4643
-610 c-20 -29 -21 -42 -26 -420 -3 -214 -10 -399 -15 -410 -8 -19 -8 -19 9 -2
15 15 38 17 177 17 132 0 167 3 209 19 33 13 50 15 50 8 -1 -7 -29 -57 -64
-111 l-63 -99 -184 3 c-214 5 -354 3 -389 -6 -22 -5 -19 0 21 43 77 80 74 59
77 448 2 193 0 366 -3 385 -5 26 -23 51 -70 95 l-64 60 178 0 179 0 -22 -30z
m4689 15 c33 -5 86 -23 119 -40 57 -29 59 -29 85 -12 50 35 56 34 20 -3 -36
-36 -36 -38 -21 -65 16 -28 16 -28 -44 -88 l-60 -60 -16 28 c-23 40 -93 70
-162 70 -96 0 -177 -57 -162 -114 7 -28 74 -72 156 -103 30 -11 88 -33 128
-48 102 -38 151 -77 187 -150 39 -79 43 -185 7 -256 -29 -59 -84 -114 -147
-147 -46 -25 -59 -27 -170 -27 -157 0 -207 16 -270 88 -48 54 -125 164 -125
177 0 5 19 11 43 15 23 4 49 11 58 16 12 6 29 -4 64 -36 93 -87 227 -109 313
-52 54 35 73 88 45 126 -29 38 -75 67 -151 92 -172 57 -260 113 -310 198 -22
38 -27 58 -27 116 0 111 47 177 172 240 85 42 162 52 268 35z m-2990 -109 c26
-12 74 -39 107 -62 33 -22 69 -44 81 -48 19 -7 16 -11 -28 -30 -28 -12 -62
-33 -76 -47 l-27 -25 -26 24 c-41 38 -128 62 -226 62 -73 0 -93 -4 -142 -28
-71 -35 -150 -105 -173 -153 -12 -26 -16 -53 -13 -91 9 -102 128 -240 227
-260 106 -22 204 3 291 76 35 28 79 95 70 105 -3 2 -67 6 -143 9 -76 3 -140 7
-143 10 -4 3 5 30 19 60 l24 54 99 6 c55 4 149 7 211 7 l112 0 -6 -37 c-33
-220 -122 -358 -271 -419 -119 -47 -314 -44 -416 8 -83 43 -199 177 -232 269
-16 48 -19 177 -4 231 26 92 174 235 290 279 107 40 304 40 395 0z m1131 -11
c13 -22 39 -60 57 -83 19 -23 56 -76 82 -117 65 -101 227 -320 238 -320 5 0 7
109 6 249 l-4 250 -27 28 -27 28 120 1 c117 1 119 0 112 -20 -5 -12 -8 -198
-8 -414 l0 -392 -81 0 -81 0 -26 38 c-13 20 -60 78 -104 128 -104 119 -157
189 -227 302 -32 50 -62 92 -67 92 -5 0 -9 -109 -9 -257 0 -210 3 -263 15
-287 l15 -29 -62 6 c-35 3 -85 2 -113 -3 -27 -4 -52 -6 -54 -4 -3 2 5 14 17
27 22 23 22 26 20 385 l-1 362 -32 38 -32 37 125 -2 125 -2 23 -41z m-2135 30
l258 0 -19 -46 c-11 -25 -20 -57 -20 -70 l0 -24 -152 0 -153 0 0 -96 0 -97
131 5 132 5 -14 -33 c-8 -18 -14 -47 -14 -64 0 -28 -2 -30 -38 -30 -22 0 -73
-3 -115 -6 l-77 -7 0 -97 0 -97 38 -7 c52 -8 227 -6 287 4 28 4 51 7 52 6 2
-2 -6 -21 -17 -43 -11 -23 -22 -59 -26 -82 l-6 -40 -262 -3 c-143 -2 -262 -2
-264 -1 -2 0 5 16 15 35 16 30 18 66 21 370 l3 337 -43 47 -43 47 34 -6 c18
-4 150 -7 292 -7z m1823 -60 c-3 -36 -7 -71 -10 -77 -2 -10 -45 -13 -170 -13
-147 0 -165 -2 -160 -16 3 -9 6 -47 6 -86 l0 -70 123 4 123 4 -13 -50 c-7 -28
-13 -58 -13 -68 0 -15 -9 -18 -64 -18 -35 0 -84 -3 -108 -6 l-46 -6 -4 -92
c-3 -50 -2 -94 1 -98 4 -4 86 -8 182 -9 l176 -1 -23 -57 c-13 -31 -24 -66 -24
-78 l0 -23 -259 0 c-143 0 -268 -3 -278 -7 -11 -4 -5 8 17 31 l35 37 3 349 3
349 -33 33 -34 33 288 0 287 0 -5 -65z m1363 50 c115 -16 253 -101 293 -181
35 -67 53 -166 47 -260 -4 -73 -9 -96 -37 -147 -42 -79 -123 -155 -207 -194
l-67 -32 -223 0 c-123 -1 -223 0 -223 2 0 1 7 13 15 25 8 12 14 36 14 52 1 17
-1 178 -3 358 l-4 329 -30 31 -31 32 197 -3 c108 -1 225 -7 259 -12z m2578
-220 c-3 -5 -12 -10 -18 -10 -7 0 -6 4 3 10 19 12 23 12 15 0z m-8295 -25 c13
-14 21 -25 18 -25 -2 0 -15 11 -28 25 -13 14 -21 25 -18 25 2 0 15 -11 28 -25z"/>
<path d="M4610 10181 c0 -6 5 -11 10 -11 6 0 30 -9 52 -20 48 -23 48 -23 48
-10 0 6 -7 10 -15 10 -8 0 -15 5 -15 11 0 6 -6 9 -14 6 -8 -3 -16 -2 -18 2 -5
13 -48 24 -48 12z"/>
<path d="M5630 10050 c0 -5 5 -10 10 -10 6 0 10 5 10 10 0 6 -4 10 -10 10 -5
0 -10 -4 -10 -10z"/>
<path d="M5865 9970 c-3 -5 -1 -10 4 -10 6 0 11 5 11 10 0 6 -2 10 -4 10 -3 0
-8 -4 -11 -10z"/>
<path d="M5340 9890 c0 -5 5 -10 10 -10 6 0 10 5 10 10 0 6 -4 10 -10 10 -5 0
-10 -4 -10 -10z"/>
<path d="M5165 8870 c4 -6 11 -8 16 -5 14 9 11 15 -7 15 -8 0 -12 -5 -9 -10z"/>
<path d="M5210 8702 c0 -12 19 -26 26 -19 2 2 -2 10 -11 17 -9 8 -15 8 -15 2z"/>
<path d="M2106 8680 c-50 -54 -50 -56 -6 -110 20 -24 21 -24 32 -5 6 10 31 37
55 59 24 21 43 45 43 52 0 15 -47 54 -65 54 -7 0 -33 -22 -59 -50z"/>
<path d="M8078 8668 c4 -18 7 -129 7 -245 l0 -213 -29 -27 c-19 -17 -27 -21
-23 -10 3 9 2 19 -4 22 -5 4 -8 -6 -7 -24 1 -17 5 -31 8 -31 9 0 133 121 157
153 22 29 23 38 20 194 l-2 164 -47 14 c-25 7 -56 18 -67 24 -19 11 -20 10
-13 -21z"/>
<path d="M6848 8273 c-1 -5 -52 -53 -111 -107 -195 -179 -221 -225 -193 -337
41 -157 231 -333 363 -333 44 0 60 6 115 43 34 23 93 75 131 114 76 81 92 121
84 204 -9 83 -34 113 -290 346 -87 78 -93 83 -99 70z m91 -222 c26 -7 50 -36
39 -47 -4 -3 -30 2 -59 11 -42 14 -58 15 -89 6 -36 -11 -37 -12 -41 -68 -8
-140 8 -213 57 -254 24 -20 103 -15 152 10 56 28 63 27 50 -9 -20 -59 -48 -70
-174 -70 -106 0 -114 1 -114 19 0 11 5 23 10 26 6 4 1 18 -14 35 -13 16 -27
49 -30 73 -9 60 9 165 34 199 11 15 20 32 20 38 0 28 100 48 159 31z m14 -75
c8 -20 -13 -159 -26 -174 -9 -12 -12 -11 -18 5 -9 22 -11 146 -3 167 8 20 40
21 47 2z"/>
<path d="M5184 8067 c3 -10 9 -37 12 -59 5 -27 10 -35 15 -26 15 23 10 55 -12
79 -16 19 -19 20 -15 6z"/>
<path d="M5136 8045 c-9 -13 -16 -30 -16 -38 0 -16 36 -57 50 -57 14 0 13 27
-1 36 -7 4 -9 21 -5 45 7 45 -4 50 -28 14z"/>
<path d="M3745 6359 c-4 -6 -5 -12 -2 -15 2 -3 7 2 10 11 7 17 1 20 -8 4z"/>
<path d="M6595 6353 c2 -10 4 -21 4 -25 1 -5 6 -8 11 -8 15 0 12 26 -4 39 -12
10 -14 9 -11 -6z"/>
<path d="M3530 6160 c-8 -5 -12 -12 -9 -15 4 -3 12 1 19 10 14 17 11 19 -10 5z"/>
<path d="M2850 5595 c-7 -9 -11 -17 -9 -20 3 -2 10 5 17 15 14 24 10 26 -8 5z"/>
<path d="M2796 5541 c-11 -12 -13 -21 -7 -25 5 -4 15 3 21 15 15 28 7 34 -14
10z"/>
<path d="M2745 5490 c-3 -5 -1 -10 4 -10 6 0 11 5 11 10 0 6 -2 10 -4 10 -3 0
-8 -4 -11 -10z"/>
<path d="M4564 6954 c-18 -14 -18 -15 4 -4 12 6 22 13 22 15 0 8 -5 6 -26 -11z"/>
<path d="M4439 6879 c-23 -19 -23 -20 -2 -10 12 6 25 16 28 21 10 16 -1 12
-26 -11z"/>
<path d="M4380 6840 c0 -5 5 -10 10 -10 6 0 10 5 10 10 0 6 -4 10 -10 10 -5 0
-10 -4 -10 -10z"/>
<path d="M8320 5662 c0 -6 -51 -55 -112 -109 -62 -54 -155 -141 -205 -193
l-92 -95 27 -19 c15 -11 61 -55 102 -99 84 -89 263 -237 287 -237 30 0 143 92
239 194 53 57 115 114 138 126 22 13 43 24 44 26 6 4 -266 273 -350 347 -43
38 -78 64 -78 59z m44 -222 c39 -15 31 -29 -13 -23 -50 7 -139 -14 -150 -36
-11 -19 -11 -19 -12 -78 0 -33 -3 -42 -8 -29 -7 18 -8 18 -14 2 -11 -29 -7
-79 8 -106 8 -14 14 -21 15 -16 0 4 18 -8 40 -28 45 -40 56 -42 126 -21 27 8
58 15 69 14 18 0 17 -1 -5 -13 -14 -7 -48 -19 -77 -26 -84 -19 -136 6 -179 90
-23 45 -25 163 -4 205 28 57 136 91 204 65z m-28 -145 c0 -36 -2 -65 -6 -65
-4 0 -12 -10 -17 -22 -9 -20 -12 -13 -18 43 -8 76 -1 109 23 109 14 0 17 -11
18 -65z m152 -47 c3 -15 -4 -18 -44 -18 -30 0 -54 -6 -66 -17 -19 -17 -35 -13
-23 6 12 20 79 51 105 48 15 -1 26 -9 28 -19z m-301 -50 c-3 -7 -5 -2 -5 12 0
14 2 19 5 13 2 -7 2 -19 0 -25z m107 -24 c13 -5 14 -9 5 -20 -16 -20 -29 -17
-29 6 0 22 1 23 24 14z"/>
<path d="M8190 5143 c0 -6 8 -17 18 -24 16 -13 16 -13 2 6 -8 11 -16 22 -17
24 -2 2 -3 0 -3 -6z"/>
<path d="M4354 2725 c-4 -11 -27 -67 -52 -125 -24 -58 -46 -110 -49 -117 -3
-7 23 -13 84 -18 48 -4 95 -9 104 -11 15 -4 16 1 3 66 -17 92 -80 233 -90 205z"/>
<path d="M7005 2608 c-54 -29 -63 -103 -18 -150 50 -52 143 -27 158 43 18 79
-69 146 -140 107z"/>
<path d="M6520 1853 l-25 -4 0 -256 0 -255 110 1 c88 2 119 6 153 22 80 39
142 139 142 231 0 143 -88 235 -247 258 -69 10 -88 10 -133 3z"/>
<path d="M4145 10230 c3 -5 10 -10 16 -10 5 0 9 5 9 10 0 6 -7 10 -16 10 -8 0
-12 -4 -9 -10z"/>
<path d="M4966 10228 c3 -4 12 -8 20 -8 8 0 14 4 14 8 0 4 -9 8 -19 8 -11 0
-17 -4 -15 -8z"/>
<path d="M5096 10232 c-3 -6 -14 -9 -24 -7 -9 1 -11 0 -4 -2 15 -5 16 -19 2
-28 -19 -12 34 -43 63 -38 40 8 33 24 -9 21 -42 -3 -53 11 -28 36 9 9 14 19
11 22 -3 3 -8 1 -11 -4z"/>
<path d="M5162 10225 c9 -10 23 -15 32 -12 18 7 22 27 5 27 -5 0 -7 -4 -4 -10
8 -13 -1 -13 -28 1 -21 11 -21 10 -5 -6z"/>
<path d="M5305 10231 c-19 -8 -19 -8 2 -19 19 -11 22 -10 20 8 -1 11 -1 20 -2
19 0 0 -9 -4 -20 -8z"/>
<path d="M5340 10229 c0 -14 26 -16 37 -4 9 10 7 13 -13 11 -13 0 -24 -4 -24
-7z"/>
<path d="M5710 10228 c0 -11 24 -16 59 -10 25 4 37 1 47 -12 14 -20 46 -9 50
17 2 14 -2 15 -41 7 -5 -1 -12 -1 -15 0 -13 6 -100 4 -100 -2z"/>
<path d="M5485 10220 c3 -5 8 -10 11 -10 2 0 4 5 4 10 0 6 -5 10 -11 10 -5 0
-7 -4 -4 -10z"/>
<path d="M4420 10210 c0 -5 5 -10 11 -10 5 0 7 5 4 10 -3 6 -8 10 -11 10 -2 0
-4 -4 -4 -10z"/>
<path d="M5032 10206 c7 -8 17 -12 22 -9 4 3 2 9 -5 14 -22 13 -31 11 -17 -5z"/>
<path d="M5112 10208 c-14 -14 -16 -28 -3 -28 9 0 24 30 18 36 -2 2 -9 -2 -15
-8z"/>
<path d="M5278 10199 c24 -16 30 -25 22 -34 -5 -6 -7 -15 -3 -19 4 -3 -3 -5
-15 -3 -28 4 -77 43 -64 51 5 3 18 -3 29 -14 22 -20 41 -16 20 4 -20 20 -50
28 -58 15 -5 -9 -15 -9 -39 0 -28 9 -31 9 -20 -4 7 -8 21 -15 31 -15 11 0 27
-8 37 -18 11 -11 33 -24 50 -30 30 -10 32 -9 38 14 3 13 11 24 18 24 6 0 -2
11 -18 25 -16 14 -36 25 -45 25 -9 0 -3 -9 17 -21z"/>
<path d="M5340 10190 c0 -5 5 -10 10 -10 6 0 10 5 10 10 0 6 -4 10 -10 10 -5
0 -10 -4 -10 -10z"/>
<path d="M5577 10184 c-10 -10 24 -33 48 -33 11 0 14 3 8 6 -7 2 -15 3 -17 1
-3 -2 -11 5 -18 15 -8 10 -17 15 -21 11z"/>
<path d="M5050 10162 c0 -6 9 -12 20 -15 11 -3 20 -3 20 -1 0 2 -9 8 -20 14
-11 6 -20 7 -20 2z"/>
<path d="M5180 10150 c19 -13 30 -13 30 0 0 6 -10 10 -22 10 -19 0 -20 -2 -8
-10z"/>
<path d="M5790 10140 c0 -13 5 -18 14 -14 8 3 12 12 9 20 -8 21 -23 17 -23 -6z"/>
<path d="M5100 10129 c0 -6 -9 -8 -22 -4 -19 5 -20 4 -6 -5 9 -5 23 -7 32 -4
18 7 22 24 6 24 -5 0 -10 -5 -10 -11z"/>
<path d="M5425 10130 c3 -5 8 -10 11 -10 2 0 4 5 4 10 0 6 -5 10 -11 10 -5 0
-7 -4 -4 -10z"/>
<path d="M4895 10110 c3 -5 10 -10 16 -10 5 0 9 5 9 10 0 6 -7 10 -16 10 -8 0
-12 -4 -9 -10z"/>
<path d="M5130 10110 c0 -5 5 -10 10 -10 6 0 10 5 10 10 0 6 -4 10 -10 10 -5
0 -10 -4 -10 -10z"/>
<path d="M5160 10097 c-20 -16 -23 -36 -9 -53 13 -15 44 -20 34 -5 -3 5 -1 12
4 15 5 4 12 2 16 -4 8 -13 25 -13 25 -1 0 5 -13 12 -30 16 -16 4 -30 11 -30
16 0 5 11 7 25 3 16 -4 25 -2 25 6 0 7 -6 10 -14 7 -7 -3 -17 -2 -22 3 -5 5
-16 3 -24 -3z m15 -36 c3 -5 1 -12 -4 -15 -5 -3 -11 1 -15 9 -6 16 9 21 19 6z"/>
<path d="M5790 10100 c0 -5 7 -10 16 -10 8 0 12 5 9 10 -3 6 -10 10 -16 10 -5
0 -9 -4 -9 -10z"/>
</g>
</svg>
